<?xml version="1.0" standalone="no"?>
<!DOCTYPE svg PUBLIC "-//W3C//DTD SVG 20010904//EN"
 "http://www.w3.org/TR/2001/REC-SVG-20010904/DTD/svg10.dtd">
<svg version="1.0" xmlns="http://www.w3.org/2000/svg"
 width="920.000000pt" height="489.000000pt" viewBox="0 0 920.000000 489.000000"
 preserveAspectRatio="xMidYMid meet">

<g transform="translate(0.000000,489.000000) scale(0.100000,-0.100000)"
fill="#000000" stroke="none">
<path d="M1745 4729 c-49 -4 -98 -5 -109 -2 -21 6 -16 -7 16 -43 18 -21 18
-23 -12 -135 -17 -63 -40 -143 -50 -179 -17 -58 -51 -180 -246 -885 -31 -110
-93 -333 -139 -495 -46 -162 -102 -362 -124 -445 -23 -82 -46 -165 -52 -182
-6 -18 -7 -38 -3 -44 5 -8 3 -9 -6 -4 -10 6 -12 1 -8 -18 3 -16 1 -24 -5 -20
-6 4 -7 -4 -3 -21 5 -20 3 -26 -5 -21 -8 5 -9 1 -4 -15 5 -17 4 -20 -5 -15
-10 6 -11 1 -6 -19 5 -19 3 -26 -4 -21 -7 5 -9 -2 -4 -21 5 -21 4 -25 -6 -19
-9 6 -11 4 -5 -4 8 -14 -13 -101 -25 -101 -5 0 -6 -10 -2 -22 3 -13 1 -19 -5
-15 -6 4 -8 -4 -5 -20 3 -14 1 -24 -4 -20 -5 3 -9 -9 -10 -26 -2 -56 -117
-451 -126 -430 -4 10 -5 3 -2 -18 4 -28 2 -38 -11 -43 -13 -4 -15 -14 -11 -38
5 -25 4 -28 -3 -13 -5 11 -10 17 -10 13 -2 -13 -29 -111 -89 -323 -33 -116
-79 -275 -100 -355 -38 -137 -76 -220 -157 -343 -15 -23 3 -19 254 59 l270 83
85 68 c47 37 485 381 975 763 489 382 890 699 890 703 1 5 -15 27 -34 50 -24
28 -35 51 -35 72 0 22 -9 40 -31 61 -17 16 -35 36 -40 46 -6 10 17 189 67 520
41 276 78 525 81 551 5 44 23 77 23 43 0 -16 -70 -522 -94 -676 -8 -52 -25
-167 -37 -255 l-23 -160 250 -246 c137 -135 304 -299 372 -365 68 -65 125
-121 127 -123 4 -3 144 122 249 223 l51 48 -62 -46 c-34 -26 -66 -53 -71 -62
-8 -15 -43 -18 -195 -15 -46 1 -66 5 -62 12 4 6 13 8 21 5 7 -3 16 -1 18 3 3
5 17 7 31 6 14 -2 25 0 25 5 0 4 18 6 40 3 32 -5 40 -2 40 10 0 9 -7 14 -17
13 -22 -4 -63 14 -63 26 0 5 -6 8 -12 7 -7 -1 -20 -1 -28 0 -12 1 -11 4 3 12
17 10 17 12 2 29 -15 16 -14 18 7 23 28 8 17 20 -19 21 -18 1 -28 7 -28 16 0
8 -4 18 -10 22 -6 5 -6 8 2 8 6 0 15 -5 18 -10 10 -17 24 -2 18 20 -4 16 -8
18 -19 9 -8 -7 -17 -10 -20 -7 -2 3 7 13 20 22 23 15 26 15 34 0 6 -11 12 -13
16 -6 7 12 -5 21 -35 27 -12 3 -24 7 -28 11 -3 4 2 4 11 1 10 -3 20 -2 24 4 6
11 -14 41 -25 35 -3 -2 -12 2 -19 10 -9 10 -9 14 -1 14 6 0 9 7 5 15 -3 8 2
19 11 23 22 13 9 42 -19 42 -25 0 -64 20 -40 20 7 0 11 4 8 9 -7 10 69 20 174
21 41 0 85 3 96 6 23 6 26 18 40 142 4 34 10 65 14 67 4 3 28 -11 53 -30 24
-19 47 -31 51 -28 12 12 6 33 -10 33 -8 0 -107 83 -219 185 l-203 185 4 37 c5
45 75 742 105 1038 11 116 24 224 29 240 13 42 5 -84 -25 -380 -13 -132 -38
-393 -56 -580 l-32 -339 58 -53 c32 -29 62 -50 66 -47 5 3 9 24 9 47 0 23 7
112 15 197 8 85 33 361 55 613 22 253 42 463 46 468 3 5 57 9 120 9 107 0 114
1 115 20 2 33 4 38 12 46 5 5 6 -30 3 -76 -2 -47 -7 -139 -11 -205 -3 -66 -8
-142 -10 -170 -10 -120 -75 -1161 -75 -1199 0 -14 5 -26 10 -26 6 0 10 11 10
24 0 19 7 26 29 31 16 3 32 13 35 21 4 10 2 13 -7 8 -6 -4 -3 2 7 15 15 16 17
24 8 33 -9 9 -12 9 -12 0 0 -7 -7 -12 -16 -12 -12 0 -14 4 -7 13 14 18 14 59
0 76 -10 12 -9 14 4 9 12 -5 15 -1 11 18 -2 13 0 24 7 24 6 0 8 7 4 17 -5 13
-2 15 11 10 9 -4 15 -3 11 2 -8 13 10 22 45 23 17 1 30 5 30 10 0 5 -15 8 -33
6 -18 -1 -38 2 -45 6 -20 12 -14 46 11 56 13 5 16 9 7 10 -13 0 -13 2 -1 9 18
12 44 -10 27 -22 -7 -6 -6 -7 5 -4 8 3 25 -6 38 -19 29 -30 41 -31 33 -1 l-5
22 24 -20 c80 -65 99 -95 62 -95 -14 0 -15 -2 -4 -12 10 -11 14 -9 23 6 8 15
12 16 19 5 5 -8 3 -17 -4 -22 -8 -6 -7 -7 5 -4 10 4 31 -9 57 -34 23 -23 45
-39 50 -37 13 4 -30 52 -226 251 -91 92 -163 170 -159 174 3 4 21 -7 38 -23
18 -16 26 -20 18 -9 -8 11 -22 25 -30 32 -10 8 -12 15 -5 22 10 10 82 -48 182
-146 24 -24 48 -43 53 -43 21 0 21 23 -1 46 -26 27 -48 33 -28 7 11 -15 10
-14 -9 1 -23 20 -30 32 -12 21 6 -3 10 -2 10 2 0 15 -101 103 -111 97 -5 -3
-9 2 -9 10 0 8 5 18 12 22 7 5 8 3 3 -6 -5 -9 -4 -11 4 -6 9 6 9 11 0 22 -6 8
-9 23 -6 34 3 13 -1 22 -17 27 -29 10 90 22 124 12 23 -7 23 -7 3 -8 -12 -1
-24 -5 -27 -10 -7 -11 40 -21 51 -10 4 4 27 9 50 10 30 2 48 -2 63 -16 21 -19
21 -19 14 1 -4 14 -3 16 4 5 6 -8 17 -11 26 -8 9 4 16 2 16 -3 0 -6 -6 -10
-14 -10 -7 0 -20 -8 -27 -17 -12 -14 -12 -16 1 -8 29 17 48 12 53 -14 5 -24 4
-25 -9 -6 -12 16 -14 16 -14 3 0 -9 4 -19 10 -23 5 -3 6 -13 3 -23 -6 -15 -5
-15 10 -3 9 7 17 9 17 3 0 -5 -7 -15 -15 -22 -20 -17 -19 -37 2 -49 19 -10 14
-21 -11 -25 -22 -3 -20 -21 2 -21 12 0 17 -8 17 -27 1 -15 4 -30 8 -34 4 -4 7
-12 7 -18 0 -6 -5 -4 -11 4 -7 11 -8 -13 -3 -80 3 -52 7 -112 8 -132 0 -21 8
-44 16 -53 14 -13 16 -8 18 55 1 50 -2 70 -11 70 -9 0 -9 2 0 8 9 6 15 117 22
417 6 226 13 460 16 520 2 61 7 184 11 275 3 91 7 166 9 168 4 4 -5 -758 -15
-1288 l-9 -465 -28 -24 c-15 -13 -147 -128 -292 -255 -146 -127 -330 -288
-410 -358 l-146 -127 -160 157 c-88 86 -121 117 -75 67 192 -204 224 -235 245
-228 10 3 41 8 67 12 46 6 64 21 433 344 l385 339 0 131 c0 73 7 481 15 907
16 840 19 1357 8 1347 -3 -4 -14 4 -23 19 -10 14 -20 24 -22 22 -3 -2 -12 3
-21 10 -23 19 -64 5 -70 -23 -2 -13 -1 -28 4 -32 4 -4 9 -19 11 -33 3 -22 -1
-25 -32 -27 -19 -1 -27 1 -17 3 21 7 23 44 2 44 -12 0 -15 16 -15 80 0 50 -4
80 -11 80 -5 0 -7 -5 -3 -11 7 -12 -71 -10 -98 3 -10 5 -18 4 -20 -2 -2 -7
-86 -11 -238 -11 -382 -1 -402 0 -394 13 5 8 2 9 -12 4 -29 -12 -64 -14 -58
-5 3 5 -22 9 -56 9 -34 0 -59 -4 -56 -9 3 -5 0 -8 -7 -7 -6 0 -58 -26 -114
-59 -110 -64 -106 -59 -118 -162 -4 -29 -10 -53 -14 -53 -4 0 -23 33 -43 73
-35 71 -40 77 -142 146 l-106 72 -442 -1 c-244 -1 -450 0 -458 3 -8 2 -55 0
-105 -4z m1618 -16 c-7 -2 -19 -2 -25 0 -7 3 -2 5 12 5 14 0 19 -2 13 -5z
m784 -55 c-3 -8 -6 -5 -6 6 -1 11 2 17 5 13 3 -3 4 -12 1 -19z m-477 8 c0 -9
-30 -14 -35 -6 -4 6 3 10 14 10 12 0 21 -2 21 -4z m-1739 -53 c13 -16 12 -17
-3 -4 -10 7 -18 15 -18 17 0 8 8 3 21 -13z m374 -3 c10 -11 16 -20 13 -20 -3
0 -13 9 -23 20 -10 11 -16 20 -13 20 3 0 13 -9 23 -20z m-195 -25 c13 -14 19
-25 13 -25 -6 0 -18 11 -27 25 -9 14 -15 25 -13 25 2 0 14 -11 27 -25z m1404
14 c-7 -12 11 -10 63 7 22 7 -42 -53 -122 -113 -33 -25 -63 -52 -68 -62 -5
-10 -6 -8 -3 9 3 14 8 48 11 76 5 33 13 54 26 62 15 10 17 9 13 -3 -9 -23 17
-18 51 10 34 27 39 30 29 14z m141 -73 c-4 -42 -11 -73 -16 -70 -5 3 -6 30 -3
60 7 52 6 54 -17 54 -23 0 -23 1 6 20 16 10 31 17 33 15 2 -2 1 -38 -3 -79z
m-1740 46 c-5 -13 -2 -12 15 3 20 18 21 18 75 -35 30 -30 55 -58 55 -62 0 -4
-45 -7 -100 -5 l-99 2 -7 29 c-4 21 -2 31 10 38 9 5 16 18 16 29 0 11 5 17 10
14 6 -3 10 -1 10 5 0 6 5 8 11 5 6 -4 8 -14 4 -23z m1844 12 c2 -2 -3 -4 -12
-4 -9 0 -17 -8 -17 -17 0 -16 -2 -16 -11 -3 -9 12 -10 12 -5 -3 3 -10 6 -27 6
-38 0 -30 20 -22 21 9 1 16 3 20 6 10 3 -13 15 -18 41 -19 l37 -2 -40 -7 -40
-7 52 -2 c43 -1 51 2 47 14 -7 17 11 21 21 5 3 -5 12 -10 18 -10 7 0 4 5 -5
11 -29 17 -22 44 12 46 16 1 32 -2 35 -8 4 -5 11 -7 16 -4 5 3 6 -1 3 -9 -7
-19 7 -21 26 -3 8 6 6 2 -4 -10 -11 -14 -27 -21 -40 -19 -12 2 -15 1 -8 -1 20
-7 14 -21 -17 -31 -16 -6 -34 -6 -42 -1 -8 5 -41 8 -74 7 l-60 -1 60 -7 60 -7
-77 0 c-51 0 -78 4 -78 11 0 6 -5 4 -10 -4 -12 -18 -13 23 -4 83 7 37 7 37 43
31 20 -4 38 -8 40 -10z m-1609 -68 l-11 -54 -46 49 c-25 27 -44 52 -41 54 3 3
13 -6 22 -20 9 -14 22 -23 28 -19 6 4 18 -2 26 -12 11 -15 13 -15 9 -2 -3 9
-3 19 1 23 7 7 8 9 12 43 1 10 4 12 7 5 2 -7 -1 -37 -7 -67z m1683 57 c-3 -7
-21 -13 -42 -13 -33 1 -35 2 -17 15 23 18 66 16 59 -2z m-1163 -17 c0 -2 -15
-6 -34 -8 -19 -2 -32 0 -30 4 5 8 64 12 64 4z m77 -2 c-3 -3 -12 -4 -19 -1 -8
3 -5 6 6 6 11 1 17 -2 13 -5z m533 2 c0 -2 -8 -10 -17 -17 -16 -13 -17 -12 -4
4 13 16 21 21 21 13z m325 -17 c-4 -5 -1 -9 4 -9 6 0 11 -11 11 -25 0 -14 -5
-25 -11 -25 -6 0 -9 -7 -5 -15 4 -13 -8 -15 -81 -15 -47 0 -84 2 -82 4 25 24
154 104 161 100 4 -3 6 -10 3 -15z m-1162 4 c-45 -2 -122 -2 -170 0 -48 1 -11
3 82 3 94 0 133 -2 88 -3z m-173 -31 c0 -4 -16 -6 -35 -4 -19 2 -35 6 -35 8 0
2 16 4 35 4 19 0 35 -4 35 -8z m70 -2 c0 -5 -7 -7 -15 -4 -8 4 -15 8 -15 10 0
2 7 4 15 4 8 0 15 -4 15 -10z m1849 6 c-10 -8 -89 -13 -89 -5 0 5 21 9 47 9
25 0 44 -2 42 -4z m-836 -25 c4 0 7 -4 7 -8 0 -5 -30 -7 -67 -6 -116 3 -130 6
-63 12 58 5 100 6 123 2z m786 -17 c2 -2 -30 -4 -72 -4 -67 0 -79 -3 -106 -26
-17 -14 -29 -30 -26 -34 3 -5 0 -12 -6 -16 -8 -4 -9 -3 -5 4 12 19 -9 14 -28
-7 -10 -10 -27 -21 -38 -24 -12 -3 -17 -3 -12 2 5 4 36 29 69 56 33 28 62 53
63 58 4 7 152 -1 161 -9z m81 -2 c0 -5 -13 -7 -30 -4 -16 2 -30 6 -30 8 0 2
14 4 30 4 17 0 30 -4 30 -8z m-2225 -35 l70 -3 -77 -2 c-68 -2 -78 0 -78 16 0
11 3 13 8 5 4 -7 38 -14 77 -16z m105 19 c0 -3 -4 -8 -10 -11 -5 -3 -10 -1
-10 4 0 6 5 11 10 11 6 0 10 -2 10 -4z m1137 -16 c3 -10 2 -11 -4 -4 -4 6 -15
14 -23 17 -11 5 -9 6 4 4 11 -1 21 -9 23 -17z m103 11 c0 -21 -13 -41 -26 -41
-8 0 -14 -4 -14 -10 0 -5 7 -10 16 -10 10 0 14 -7 12 -22 -2 -18 -10 -24 -39
-26 -35 -3 -35 -3 -32 35 8 78 11 83 48 83 19 0 35 -4 35 -9z m110 -21 c0 -6
32 -10 75 -10 43 0 75 4 75 10 0 6 6 10 14 10 9 0 12 -8 8 -25 -3 -20 -7 -23
-18 -14 -11 9 -22 7 -48 -5 -38 -18 -76 -21 -76 -6 0 6 -8 10 -17 10 -13 0
-11 -5 10 -18 15 -9 27 -21 27 -27 0 -5 5 -3 11 5 9 12 10 12 7 1 -5 -18 -55
-33 -64 -20 -3 5 -10 7 -15 3 -5 -3 -7 -10 -4 -15 4 -5 1 -9 -6 -9 -7 0 -4 -7
7 -15 10 -8 14 -15 8 -15 -8 0 -9 -11 -4 -35 5 -20 4 -33 -1 -29 -5 3 -9 13
-10 22 -1 11 -4 8 -9 -8 -5 -15 -8 18 -7 87 2 100 4 113 20 113 9 0 17 -4 17
-10z m541 -4 c14 8 10 -6 -6 -22 -13 -14 -15 -12 -14 13 0 15 3 22 6 15 2 -6
9 -10 14 -6z m129 -28 c0 -6 -6 -5 -15 2 -8 7 -15 14 -15 16 0 2 7 1 15 -2 8
-4 15 -11 15 -16z m-888 -43 l3 -40 53 0 c28 0 52 -3 52 -7 0 -5 -41 -8 -92
-8 -85 0 -117 7 -55 12 19 2 27 8 27 21 0 12 -4 16 -12 11 -9 -5 -9 -3 1 9 7
9 11 27 8 38 -3 13 -2 18 3 13 5 -5 10 -27 12 -49z m1001 -134 c1 -13 7 -26
13 -28 6 -2 8 10 6 32 l-4 35 59 0 c58 0 59 0 61 -30 2 -30 2 -30 -50 -30 -38
0 -49 -3 -38 -10 12 -8 9 -10 -12 -10 -28 0 -28 -1 -29 -67 -1 -38 -3 -77 -4
-88 -1 -11 -3 -37 -3 -57 -2 -41 -22 -54 -22 -15 0 16 -5 23 -18 22 -42 -3
-58 -35 -18 -35 35 0 39 -14 25 -70 l-13 -50 -105 1 c-58 1 -119 4 -136 8 -29
7 -30 7 -8 19 12 7 29 12 37 12 9 0 16 5 16 11 0 5 -4 7 -10 4 -5 -3 -10 -1
-10 5 0 6 -5 8 -12 4 -7 -4 -8 -3 -4 5 4 6 13 8 19 4 8 -4 7 -1 -1 9 -9 11
-10 18 -2 23 6 3 8 10 5 15 -8 13 22 20 86 20 l59 0 0 -45 c0 -25 5 -45 11
-45 6 0 9 21 7 53 l-3 52 -80 6 c-44 3 -72 6 -62 7 20 2 21 6 5 32 -10 15 -9
25 2 47 8 15 16 32 19 37 2 5 0 6 -6 3 -6 -4 -19 0 -29 8 -15 11 -17 16 -7 26
10 10 16 9 26 -6 17 -23 27 -9 20 28 -4 18 -10 26 -19 23 -7 -3 -16 -1 -19 4
-4 6 22 10 65 10 l71 0 -3 -92 c-3 -93 -3 -93 22 -95 14 -1 19 0 13 3 -13 6
-18 85 -7 97 4 3 7 30 7 59 l1 53 -49 3 c-89 5 -73 11 23 9 82 -2 92 0 92 16
0 15 -13 17 -112 19 -64 1 -88 3 -55 5 44 3 57 7 54 17 -3 8 0 19 6 25 9 9 8
11 -3 6 -11 -4 -16 1 -17 13 -1 10 4 19 10 20 7 0 21 3 32 5 12 2 23 -2 27
-12 4 -10 7 -3 8 19 l1 35 14 -25 13 -25 8 30 c7 25 10 15 16 -55 5 -47 9 -96
11 -109z m180 112 l-10 -58 -2 70 c-1 51 2 66 10 58 8 -8 9 -28 2 -70z m-258
48 c-3 -2 -16 -6 -28 -8 -15 -2 -18 0 -9 5 14 9 45 12 37 3z m147 -27 c2 -19
0 -37 -4 -40 -4 -3 -8 13 -8 35 0 51 6 53 12 5z m-2492 -21 c0 -15 -2 -15 -9
-4 -5 8 -15 12 -22 9 -8 -3 -23 -2 -34 3 -15 6 -9 8 23 8 34 1 42 -2 42 -16z
m535 -53 c-4 -6 -62 -10 -140 -10 l-134 0 -10 -37 c-5 -21 -35 -146 -65 -278
-58 -247 -74 -308 -75 -289 -2 19 34 184 83 389 25 105 48 200 51 213 5 22 8
22 151 22 94 0 143 -4 139 -10z m75 0 c10 -6 5 -9 -18 -8 -18 1 -35 5 -38 10
-7 11 37 10 56 -2z m1867 4 c-3 -3 -12 -4 -19 -1 -8 3 -5 6 6 6 11 1 17 -2 13
-5z m-684 -11 c-7 -2 -21 -2 -30 0 -10 3 -4 5 12 5 17 0 24 -2 18 -5z m323 -9
c-3 -9 -6 -43 -6 -76 0 -80 -11 -68 -13 14 l-2 63 -62 0 c-34 0 -65 3 -69 8
-4 4 30 7 75 7 72 0 82 -2 77 -16z m-596 -11 c0 -9 -5 -45 -11 -79 -10 -55
-14 -64 -32 -63 -12 0 -35 -2 -52 -6 -24 -4 -26 -3 -10 4 15 7 -1 10 -60 11
-44 1 -72 4 -62 7 9 2 15 9 12 14 -4 5 -2 9 3 9 5 0 9 7 9 15 0 8 -4 15 -8 15
-4 0 -6 16 -4 35 2 19 -1 35 -6 35 -6 0 -7 5 -4 10 4 6 53 10 116 10 95 0 109
-2 109 -17z m216 -31 c-11 -10 -15 4 -8 28 l7 25 3 -23 c2 -13 1 -26 -2 -30z
m861 -109 c-2 -32 -3 -8 -3 52 0 61 1 87 3 58 2 -29 2 -78 0 -110z m-1666 78
c13 -10 29 -16 36 -14 6 2 14 -1 18 -7 4 -6 1 -11 -6 -9 -65 8 -90 -1 -145
-58 -31 -32 -53 -52 -50 -45 4 6 4 12 -1 12 -4 0 -16 -14 -26 -31 -9 -17 -23
-29 -30 -26 -6 2 -33 -11 -59 -30 -44 -32 -65 -34 -36 -5 7 7 8 12 3 12 -4 0
0 9 10 20 10 11 24 20 30 20 7 0 25 16 39 35 15 19 36 35 46 35 12 0 17 5 14
14 -5 13 36 46 62 50 7 1 17 6 21 11 5 4 1 4 -7 0 -10 -5 -8 -1 4 13 23 27 46
28 77 3z m796 -3 c-3 -8 -6 -5 -6 6 -1 11 2 17 5 13 3 -3 4 -12 1 -19z m-1178
-255 c-23 -120 -48 -227 -55 -238 -8 -11 -14 -24 -14 -30 0 -5 5 -3 10 5 6 9
10 10 10 3 0 -6 -6 -18 -13 -25 -14 -15 -37 -98 -36 -131 0 -21 1 -21 8 -2 5
13 8 4 7 -30 -1 -27 -7 -60 -14 -72 -8 -14 -9 -23 -2 -23 5 0 10 6 10 14 0 8
6 16 12 18 7 3 14 19 15 36 2 18 4 45 6 60 3 33 -2 28 134 146 56 49 100 92
98 96 -3 4 5 16 18 26 l22 19 -19 -22 c-20 -24 -10 -32 14 -10 8 6 4 0 -9 -15
-27 -31 -22 -36 13 -13 22 15 24 14 39 -9 15 -22 15 -25 -2 -40 -10 -9 -21
-16 -25 -16 -9 0 -36 -20 -101 -78 -47 -41 -48 -43 -30 -62 10 -11 23 -20 28
-20 6 0 2 9 -9 21 -19 21 -19 21 31 65 28 24 58 44 68 44 10 0 16 3 14 8 -3 4
11 14 29 23 34 16 35 16 54 -8 11 -14 17 -30 13 -36 -3 -5 -1 -7 4 -4 6 4 13
-2 16 -13 3 -11 1 -18 -3 -15 -4 3 -6 -13 -4 -35 2 -27 0 -40 -9 -40 -6 0 1
-11 18 -24 26 -21 27 -24 10 -29 -11 -2 -74 -6 -140 -6 -75 -1 -126 -6 -137
-14 -9 -7 -50 -40 -92 -74 -43 -35 -82 -60 -90 -57 -9 3 -17 -3 -21 -18 -4
-13 -13 -30 -20 -38 -14 -16 -39 -149 -31 -158 3 -3 1 -12 -6 -19 -7 -8 -12
-37 -12 -64 0 -27 -3 -44 -7 -38 -4 7 -10 -2 -14 -21 -5 -23 -3 -35 6 -41 11
-6 10 -9 -4 -15 -18 -7 -24 -34 -7 -34 15 0 12 -16 -5 -33 -8 -9 -11 -17 -6
-19 5 -2 7 -16 4 -31 -5 -23 -50 -62 -242 -204 -130 -97 -242 -181 -249 -186
-23 -18 -23 0 3 94 23 86 24 82 8 -25 l-6 -39 32 19 c18 10 63 42 99 69 232
175 271 207 276 222 3 10 48 230 100 488 137 679 145 718 151 743 4 15 13 22
29 22 25 0 25 -1 46 103 6 32 14 56 17 54 2 -3 -14 -104 -38 -224z m2004 220
c-7 -2 -13 -20 -13 -38 0 -19 -5 -37 -10 -40 -6 -4 -8 -11 -4 -16 3 -6 -3 -19
-15 -30 -12 -11 -21 -15 -21 -9 0 16 -21 12 -37 -7 -14 -17 -14 -17 -9 0 3 10
6 48 6 83 l0 64 58 -1 c31 0 51 -3 45 -6z m-2630 -30 c-13 -2 -33 -2 -45 0
-13 2 -3 4 22 4 25 0 35 -2 23 -4z m2243 -50 c-10 -10 -19 5 -10 18 6 11 8 11
12 0 2 -7 1 -15 -2 -18z m-2243 0 c-7 -2 -19 -2 -25 0 -7 3 -2 5 12 5 14 0 19
-2 13 -5z m-16 -75 c-3 -8 -6 -5 -6 6 -1 11 2 17 5 13 3 -3 4 -12 1 -19z
m2626 -4 c3 -4 2 -15 -3 -25 -6 -11 -6 -20 -1 -23 5 -4 9 -21 8 -39 -2 -27 -6
-32 -29 -35 -25 -3 -26 -1 -23 40 1 24 3 53 4 66 1 21 29 31 44 16z m-2579
-29 c3 -8 1 -15 -4 -15 -6 0 -10 7 -10 15 0 8 2 15 4 15 2 0 6 -7 10 -15z
m1223 -32 c-3 -10 -5 -2 -5 17 0 19 2 27 5 18 2 -10 2 -26 0 -35z m1292 25 c0
-22 -1 -22 -9 -3 -6 15 -9 6 -11 -35 -2 -53 -3 -53 -6 -11 -3 24 -2 50 1 57 9
22 26 16 25 -8z m-1091 -5 c-16 -2 -40 -2 -55 0 -16 2 -3 4 27 4 30 0 43 -2
28 -4z m109 -1 c13 -8 6 -52 -8 -52 -5 0 -9 9 -9 20 0 13 -10 22 -32 29 l-33
9 35 1 c19 0 40 -3 47 -7z m-462 -134 c-9 -62 -68 -443 -131 -846 -63 -403
-114 -742 -114 -753 0 -11 19 -43 42 -70 22 -27 39 -50 37 -52 -2 -2 -24 -19
-49 -38 -24 -19 -52 -38 -61 -44 -9 -5 -26 -16 -38 -23 -11 -7 -21 -11 -21 -8
0 8 65 66 74 66 10 0 56 47 56 58 0 3 -16 23 -36 43 l-35 36 66 419 c138 880
151 959 205 1267 20 109 23 69 5 -55z m-1177 95 c-10 -2 -28 -2 -40 0 -13 2
-5 4 17 4 22 1 32 -1 23 -4z m159 0 c-20 -2 -52 -2 -70 0 -17 2 0 4 38 4 39 0
53 -2 32 -4z m2410 -30 c-3 -10 -5 -4 -5 12 0 17 2 24 5 18 2 -7 2 -21 0 -30z
m50 15 c-3 -8 -6 -5 -6 6 -1 11 2 17 5 13 3 -3 4 -12 1 -19z m-1667 5 c-8 -4
-42 -28 -75 -55 -33 -27 -67 -55 -75 -61 -9 -7 -24 -19 -34 -27 -11 -8 -17
-10 -15 -4 8 23 174 154 194 153 14 0 16 -2 5 -6z m355 -147 c-10 -72 -22
-135 -28 -141 -6 -7 -8 2 -4 25 3 19 14 88 24 153 24 156 30 129 8 -37z
m-1385 132 c0 -2 -7 -23 -15 -48 -13 -42 -14 -43 -12 -12 1 19 5 36 10 39 5 3
3 9 -4 14 -11 7 -10 9 4 9 9 0 17 -1 17 -2z m1815 -8 c16 -7 11 -9 -20 -10
-134 -6 -315 0 -285 10 33 11 279 10 305 0z m-785 -14 c0 -2 -44 -39 -97 -82
-54 -42 -116 -93 -138 -113 -22 -20 -31 -25 -20 -12 18 21 244 211 252 211 2
0 3 -2 3 -4z m123 -91 c24 -32 18 -28 -31 20 -34 33 -62 64 -62 69 0 13 54
-39 93 -89z m-1129 70 c-5 -11 1 -15 20 -15 16 0 26 6 26 15 0 12 20 15 119
15 66 0 122 -4 125 -8 3 -5 -4 -23 -15 -41 -11 -18 -15 -30 -9 -26 5 3 10 -1
10 -10 0 -11 -5 -15 -15 -11 -18 7 -20 -15 -3 -32 9 -9 9 -12 -1 -12 -8 0 -11
-7 -8 -19 4 -18 -2 -19 -111 -20 -63 -1 -119 -4 -123 -7 -5 -3 -9 4 -9 14 0
11 -6 22 -14 25 -16 6 -36 -11 -36 -32 0 -8 -3 -12 -6 -8 -8 7 38 187 48 187
4 0 5 -7 2 -15z m2753 0 c2 -1 -1 -57 -5 -126 l-7 -124 -27 -3 c-22 -3 -27 0
-22 12 4 11 0 16 -15 16 -37 0 -21 -33 19 -38 30 -4 51 -22 32 -29 -6 -3 -10
-8 -7 -13 2 -4 -17 -10 -43 -14 -37 -5 -49 -3 -59 10 -7 9 -10 21 -7 25 3 5 0
9 -6 9 -9 0 -11 32 -9 115 2 63 1 115 -4 115 -13 0 -15 -18 -21 -162 l-7 -138
88 0 c61 0 83 -3 73 -10 -8 -5 -43 -10 -77 -10 l-63 0 0 -37 c0 -85 2 -83
-134 -83 -66 0 -128 5 -136 10 -11 7 -6 10 20 10 27 0 32 3 20 11 -11 8 -12
12 -2 16 6 2 12 13 12 24 0 10 7 19 15 19 16 0 10 30 -9 42 -8 5 -7 13 2 28
20 33 15 49 -13 44 -18 -3 -25 0 -25 11 0 8 5 15 11 15 6 0 8 7 5 15 -3 8 -9
22 -12 30 -4 10 0 15 10 15 9 0 13 6 10 15 -4 8 -9 13 -13 10 -4 -2 -8 13 -8
33 -1 58 -2 64 -13 57 -5 -3 -10 -1 -10 4 0 7 42 11 118 11 64 0 124 5 132 10
8 5 11 10 5 10 -5 1 0 5 13 10 12 5 22 16 22 25 0 8 5 15 10 15 11 0 12 -52 2
-182 l-7 -88 25 1 c14 0 19 3 13 6 -10 3 -13 40 -13 134 0 122 1 129 20 129
13 0 18 -5 14 -15 -4 -8 -1 -15 5 -15 6 0 10 3 10 8 -4 26 3 31 34 25 17 -3
33 -7 34 -8z m-992 -16 c-35 -11 -275 -8 -281 3 -3 5 66 8 153 7 114 0 150 -3
128 -10z m-683 -100 c76 -86 75 -110 -3 -34 -70 69 -81 87 -72 111 5 14 8 15
11 3 3 -7 31 -44 64 -80z m-9 66 c23 -32 17 -32 -13 0 -13 14 -19 25 -14 25 5
0 17 -12 27 -25z m1410 8 c-7 -2 -19 -2 -25 0 -7 3 -2 5 12 5 14 0 19 -2 13
-5z m-978 -43 l39 -40 121 -1 c66 0 129 -4 140 -9 12 -5 -55 -9 -171 -9 -159
-1 -194 2 -204 14 -9 10 -9 15 -1 15 6 0 11 -4 11 -10 0 -11 33 -13 68 -4 l23
7 -27 28 c-15 16 -34 29 -41 29 -7 0 -13 5 -13 10 0 19 16 10 55 -30z m212 34
c74 -5 81 -7 78 -25 -3 -13 3 -23 18 -29 15 -6 -21 -9 -105 -9 l-127 -1 -33
33 -33 32 60 2 c33 1 97 -1 142 -3z m-797 -37 c0 -2 -10 -12 -22 -23 l-23 -19
19 23 c18 21 26 27 26 19z m570 -29 c0 -7 -5 -6 -13 1 -8 6 -17 8 -21 4 -4 -4
-4 0 0 10 5 14 9 15 20 6 8 -6 14 -16 14 -21z m-690 15 c0 -5 -13 -17 -28 -27
l-27 -19 24 26 c26 28 31 32 31 20z m975 -72 c19 -1 25 -4 18 -9 -17 -11 -33
-98 -20 -111 6 -6 4 -16 -9 -28 -17 -17 -17 -18 9 -21 15 -2 27 -8 27 -13 0
-5 -89 -9 -216 -9 -141 0 -213 3 -209 10 3 6 32 10 63 11 44 0 52 2 35 9 -23
9 -29 21 -16 34 7 6 10 23 17 81 2 17 4 33 5 37 0 4 16 8 34 10 32 3 207 3
262 -1z m-318 -33 c-3 -7 -5 -2 -5 12 0 14 2 19 5 13 2 -7 2 -19 0 -25z
m-1530 6 c-3 -3 -12 -4 -19 -1 -8 3 -5 6 6 6 11 1 17 -2 13 -5z m377 -68 c-3
-15 -8 -25 -11 -23 -2 3 -1 17 3 31 3 15 8 25 11 23 2 -3 1 -17 -3 -31z m-364
-23 c0 -10 -5 -25 -10 -33 -7 -11 -8 -6 -4 18 5 25 3 32 -9 32 -10 0 -14 6
-11 15 5 12 8 12 20 0 8 -7 14 -22 14 -32z m30 11 c-5 -20 -13 -41 -19 -47 -8
-8 -8 -1 -1 22 5 18 9 36 8 40 -1 13 2 21 11 21 5 0 5 -15 1 -36z m72 -51
c-11 -43 -23 -96 -26 -118 l-5 -40 19 40 19 40 2 -30 c1 -16 2 -34 4 -40 1 -5
3 -16 3 -24 1 -8 8 -11 20 -6 13 5 14 4 5 -6 -20 -20 14 -54 36 -37 12 10 12
8 -1 -8 -10 -11 -18 -23 -18 -26 0 -3 8 -5 18 -4 9 0 16 -5 14 -13 -1 -7 1
-18 6 -25 5 -6 6 -19 3 -30 -6 -16 -11 -14 -39 18 -17 20 -35 36 -38 36 -4 0
2 -10 13 -22 11 -13 24 -30 28 -38 11 -22 -8 -2 -89 92 -69 80 -85 109 -39 67
l27 -24 -17 28 c-10 15 -13 27 -8 27 5 0 24 52 42 115 37 128 53 149 21 28z
m1288 -5 c-7 -45 -16 -87 -21 -92 -12 -13 -11 -1 2 87 12 82 17 102 25 94 3
-3 0 -43 -6 -89z m-1213 76 c-3 -3 -12 -4 -19 -1 -8 3 -5 6 6 6 11 1 17 -2 13
-5z m170 -66 c-3 -8 -6 -5 -6 6 -1 11 2 17 5 13 3 -3 4 -12 1 -19z m-394 -23
c-3 -9 -8 -14 -10 -11 -3 3 -2 9 2 15 9 16 15 13 8 -4z m181 -12 c-7 -31 -21
-50 -29 -41 -8 7 15 68 26 68 5 0 6 -12 3 -27z m-124 7 c0 -5 -5 -10 -11 -10
-5 0 -7 5 -4 10 3 6 8 10 11 10 2 0 4 -4 4 -10z m-34 -25 c1 -8 -2 -15 -7 -15
-5 0 -9 10 -9 22 0 23 12 17 16 -7z m2464 5 c0 -5 -7 -10 -16 -10 -8 0 -12 5
-9 10 3 6 10 10 16 10 5 0 9 -4 9 -10z m-2497 -24 c-7 -33 28 -30 44 4 16 32
17 4 2 -39 -12 -35 -21 -38 -42 -16 -8 8 -17 11 -20 8 -7 -6 2 47 9 59 9 14
11 9 7 -16z m2749 -93 c8 -10 6 -13 -5 -13 -24 0 -27 11 -19 76 l7 59 3 -55
c2 -30 8 -60 14 -67z m-847 98 c-3 -6 -17 -11 -30 -11 -13 0 -27 -5 -31 -11
-8 -14 15 -29 34 -21 12 4 14 -1 10 -21 -3 -15 -1 -24 3 -21 5 3 9 -11 9 -30
0 -19 -4 -38 -10 -41 -6 -4 -10 5 -10 19 0 26 -13 32 -44 20 -10 -4 -16 -18
-16 -40 0 -31 3 -34 29 -34 16 0 31 6 34 13 3 6 4 2 4 -10 -1 -23 -3 -23 -147
-24 -80 0 -156 -2 -170 -4 -14 -3 -45 -2 -70 2 -37 4 -41 7 -23 14 28 10 63
41 63 54 0 5 -4 4 -9 -4 -8 -12 -14 -12 -33 -3 -13 7 -15 10 -5 8 19 -6 23 4
6 21 -7 7 -3 16 16 31 27 21 26 48 -1 38 -19 -7 -18 4 3 19 16 12 9 40 -8 30
-5 -4 -9 -2 -9 3 0 4 93 9 206 11 144 2 204 -1 199 -8z m875 -88 c-8 -14 -10
-10 -6 22 3 22 6 49 7 60 2 11 4 1 6 -22 2 -24 -1 -51 -7 -60z m-1669 67 c72
0 128 -4 125 -8 -9 -15 -29 -152 -27 -189 0 -12 -4 -25 -9 -28 -6 -4 -8 -11
-5 -16 4 -5 1 -9 -6 -9 -8 0 -10 -11 -6 -35 4 -27 2 -35 -9 -35 -8 0 -12 -5
-9 -10 4 -6 10 -8 15 -5 8 5 1 -115 -7 -125 -10 -11 -435 -12 -446 -1 -8 8 -8
11 1 11 7 0 12 6 12 14 0 8 5 18 11 22 8 4 9 -1 4 -17 -5 -16 -4 -21 3 -14 5
6 12 19 14 30 2 14 10 19 26 17 28 -4 28 3 -3 36 -16 17 -21 29 -13 33 6 4 7
12 4 18 -4 6 -2 11 4 11 8 0 8 6 0 20 -9 16 -8 19 6 13 14 -5 15 -3 5 15 -7
12 -7 23 -2 27 8 4 8 25 2 65 -1 3 -5 -2 -11 -10 -5 -8 -11 -12 -14 -9 -3 3
36 43 86 90 50 46 96 89 102 96 6 6 13 7 14 2 2 -5 62 -9 133 -9z m-1116 -87
c19 -22 27 -25 33 -15 7 11 14 8 31 -14 25 -32 27 -44 6 -44 -8 0 -15 9 -15
21 0 11 -4 17 -11 14 -10 -7 9 -44 37 -72 20 -20 25 -15 18 15 -6 25 -4 24 25
-13 18 -22 28 -41 22 -43 -18 -6 -13 -21 34 -88 49 -70 58 -98 23 -68 -13 10
-17 12 -10 4 14 -17 16 -34 2 -25 -5 3 -7 0 -5 -8 3 -7 -3 -23 -14 -36 -19
-22 -20 -22 -30 -2 -6 11 -11 27 -11 36 0 9 -4 14 -10 10 -5 -3 -28 18 -50 47
-23 29 -49 62 -58 74 -10 11 -21 27 -27 36 -5 8 -22 33 -36 54 -43 65 -45 83
-13 115 16 15 30 28 32 28 2 1 14 -11 27 -26z m2782 -14 c30 -1 58 -8 64 -15
9 -11 8 -14 -1 -14 -7 0 -10 -7 -6 -15 4 -11 -2 -15 -25 -15 -24 0 -30 4 -25
15 3 8 1 15 -4 15 -6 0 -10 -9 -10 -20 0 -13 7 -20 19 -20 11 0 23 -5 27 -12
4 -6 3 -8 -4 -5 -13 9 -42 -2 -42 -15 0 -5 4 -7 9 -3 6 3 13 -1 18 -9 4 -7 17
-15 28 -17 12 -3 21 -14 23 -27 3 -18 -1 -22 -25 -23 -15 0 -41 -2 -58 -4 -91
-8 -314 -14 -336 -7 -22 6 -25 10 -18 29 5 14 14 21 22 17 8 -3 19 2 26 10 14
16 45 10 34 -7 -4 -6 -1 -7 6 -2 7 4 10 17 7 28 -3 13 2 26 12 34 12 9 13 12
3 11 -8 -2 -17 10 -23 30 -5 17 -14 33 -21 34 -19 3 174 13 213 11 19 -1 59
-2 87 -4z m-2420 -31 c-3 -8 -6 -5 -6 6 -1 11 2 17 5 13 3 -3 4 -12 1 -19z
m2113 2 c0 -5 -2 -10 -4 -10 -3 0 -8 5 -11 10 -3 6 -1 10 4 10 6 0 11 -4 11
-10z m-2123 -42 c-3 -8 -6 -5 -6 6 -1 11 2 17 5 13 3 -3 4 -12 1 -19z m-16
-79 c-5 -13 -10 -19 -10 -12 -1 15 10 45 15 40 3 -2 0 -15 -5 -28z m1456 10
c39 -2 50 -5 46 -16 -3 -8 -8 -11 -11 -9 -3 3 -11 -2 -17 -11 -11 -14 -10 -20
4 -30 9 -7 12 -13 6 -12 -31 4 -45 -3 -45 -22 0 -11 -4 -17 -10 -14 -5 3 -10
1 -10 -4 0 -13 2 -13 34 -1 16 6 27 6 31 0 6 -9 -8 -14 -28 -11 -5 1 -6 -3 -2
-8 3 -6 12 -8 20 -4 19 7 19 -1 0 -37 -15 -30 -11 -59 9 -61 6 0 2 -4 -9 -9
-11 -5 -109 -9 -219 -9 -175 -1 -197 1 -186 14 7 8 23 15 36 15 13 0 24 5 24
10 0 6 -7 10 -15 10 -8 0 -15 5 -15 10 0 6 5 10 11 10 6 0 9 9 6 19 -3 14 -1
18 10 14 12 -5 14 -1 8 15 -3 13 -2 22 3 22 10 0 82 65 82 74 0 3 -9 3 -20 1
-11 -2 -20 0 -20 6 0 5 8 9 18 10 14 0 14 2 -3 9 -27 11 -43 -5 -28 -29 10
-16 8 -18 -13 -18 -13 0 -24 4 -24 9 0 5 5 6 11 3 6 -4 10 -1 8 6 -6 46 -2 48
89 51 48 2 105 2 127 1 22 -1 63 -3 92 -4z m-1473 -83 c-3 -21 -8 -35 -11 -32
-2 2 -1 20 3 40 3 21 8 35 11 32 2 -2 1 -20 -3 -40z m-17 -68 c-3 -8 -6 -5 -6
6 -1 11 2 17 5 13 3 -3 4 -12 1 -19z m-10 -40 c-3 -8 -6 -5 -6 6 -1 11 2 17 5
13 3 -3 4 -12 1 -19z m-10 -50 c-3 -8 -6 -5 -6 6 -1 11 2 17 5 13 3 -3 4 -12
1 -19z m-41 -183 c-20 -86 -36 -159 -36 -162 0 -4 -3 -4 -6 0 -3 3 11 78 32
166 21 88 40 159 42 157 2 -3 -12 -75 -32 -161z m832 158 c-54 -2 -142 -2
-195 0 -54 1 -10 3 97 3 107 0 151 -2 98 -3z m1772 3 c0 -3 -4 -8 -10 -11 -5
-3 -10 -1 -10 4 0 6 5 11 10 11 6 0 10 -2 10 -4z m-1092 -19 c6 -17 1 -38 -7
-32 -6 3 -15 -3 -21 -14 -9 -18 -8 -20 7 -14 15 6 16 4 6 -9 -7 -8 -10 -18 -7
-21 8 -8 7 -89 -1 -139 -5 -26 -12 -38 -23 -38 -15 0 -15 -2 -2 -10 10 -7 12
-12 4 -17 -6 -5 -14 -15 -17 -23 -6 -16 -8 -6 -11 54 0 16 -6 31 -13 33 -7 3
-9 -3 -6 -16 3 -11 -2 -30 -10 -42 -9 -11 -13 -28 -10 -37 4 -10 2 -13 -5 -8
-17 10 -15 46 3 52 12 5 13 10 4 20 -6 7 -7 19 -3 25 4 8 3 9 -4 5 -7 -4 -12
-3 -12 3 0 6 -23 9 -55 8 -39 -2 -54 0 -51 8 2 7 -7 12 -25 12 -32 0 -39 -13
-11 -20 12 -4 11 -5 -6 -6 -15 -1 -26 7 -31 22 -9 24 5 51 21 41 6 -4 2 5 -7
20 -11 17 -13 26 -6 26 7 0 9 5 6 10 -15 25 16 7 35 -20 18 -25 19 -30 6 -30
-9 0 -16 -8 -16 -20 0 -30 30 -13 37 22 4 23 10 28 24 25 11 -3 17 -1 13 4 -3
5 -13 9 -24 9 -25 0 -33 27 -9 33 13 4 17 10 13 22 -4 10 -1 21 7 26 22 14 -7
28 -54 26 -21 -2 -40 1 -43 4 -2 4 48 8 113 8 64 1 118 2 119 4 5 5 69 0 72
-6z m64 -9 c-7 -7 -12 -20 -12 -30 0 -10 -6 -18 -14 -18 -8 0 -13 11 -12 30 1
25 5 30 26 30 19 0 21 -3 12 -12z m-828 -6 c61 -2 76 -5 69 -14 -6 -7 -18 -53
-27 -102 -9 -50 -22 -94 -29 -98 -6 -4 -50 -7 -97 -6 -83 3 -85 4 -82 27 1 13
31 55 67 93 36 39 65 74 65 79 0 5 -41 9 -91 9 -49 0 -88 3 -85 8 4 7 39 7
210 4z m1477 -29 c13 -16 12 -17 -3 -4 -17 13 -22 21 -14 21 2 0 10 -8 17 -17z
m-1694 -51 c-4 -32 -11 -69 -16 -83 -11 -24 -10 -15 6 104 8 60 16 43 10 -21z
m103 48 c0 -5 -9 -14 -20 -20 -16 -8 -20 -8 -20 4 0 8 8 17 18 19 9 3 18 5 20
6 1 0 2 -3 2 -9z m1580 -42 c0 -6 -7 -5 -15 2 -8 7 -15 17 -15 22 0 6 7 5 15
-2 8 -7 15 -17 15 -22z m65 -8 c14 -15 15 -20 4 -20 -8 0 -20 9 -27 20 -7 11
-8 20 -4 20 5 0 17 -9 27 -20z m-735 -60 c0 -11 -4 -20 -10 -20 -5 0 -10 9
-10 20 0 11 5 20 10 20 6 0 10 -9 10 -20z m-360 -44 c0 -3 -4 -8 -10 -11 -5
-3 -10 -1 -10 4 0 6 5 11 10 11 6 0 10 -2 10 -4z m360 -11 c0 -8 -5 -15 -11
-15 -5 0 -8 -4 -5 -8 3 -5 30 -7 60 -4 40 3 59 0 70 -10 12 -13 10 -15 -22
-18 -21 -2 -52 -3 -69 -3 -28 0 -33 -4 -33 -24 0 -16 -4 -22 -11 -17 -9 5 -10
-6 -5 -40 6 -39 5 -46 -9 -46 -14 0 -15 8 -9 58 4 31 12 60 18 64 7 5 7 8 1 8
-7 0 -9 15 -7 35 4 34 32 52 32 20z m-1040 -5 c0 -5 -5 -10 -11 -10 -5 0 -7 5
-4 10 3 6 8 10 11 10 2 0 4 -4 4 -10z m333 -17 c-7 -2 -19 -2 -25 0 -7 3 -2 5
12 5 14 0 19 -2 13 -5z m397 -47 c0 -11 -19 -15 -25 -6 -3 5 1 10 9 10 9 0 16
-2 16 -4z m-492 -15 c39 -1 72 -4 72 -8 0 -7 -264 -8 -325 -2 -30 3 104 14
145 12 19 -1 68 -2 108 -2z m687 -10 c3 -5 1 -12 -5 -16 -5 -3 -10 1 -10 9 0
18 6 21 15 7z m241 -3 c5 -8 2 -9 -9 -5 -9 3 -19 2 -22 -4 -4 -5 -12 -9 -18
-8 -27 3 -47 -2 -47 -11 0 -6 33 -11 78 -11 42 -1 67 -4 55 -6 -22 -4 -39 -31
-27 -42 4 -3 9 0 11 7 6 16 32 -15 32 -38 0 -12 -2 -12 -13 2 -12 17 -14 17
-31 -2 -19 -21 -7 -28 13 -8 9 9 12 9 12 0 0 -17 27 -15 33 2 3 8 3 23 0 34
-2 11 1 23 7 27 9 5 10 1 5 -14 -6 -19 8 -31 18 -13 2 4 2 1 0 -6 -1 -7 9 -25
23 -39 l26 -26 17 22 17 22 29 -31 c16 -17 43 -35 60 -39 19 -6 -54 -10 -212
-10 -210 -1 -243 1 -243 14 0 18 17 20 22 3 2 -6 9 -8 15 -5 11 7 17 34 28
140 l6 57 54 0 c30 0 57 -5 61 -12z m-456 -8 c0 -5 -2 -10 -4 -10 -3 0 -8 5
-11 10 -3 6 -1 10 4 10 6 0 11 -4 11 -10z m-837 -20 c-3 -12 -14 -20 -26 -20
-20 0 -20 0 -1 19 25 26 33 26 27 1z m897 10 c0 -5 -7 -10 -15 -10 -8 0 -15 5
-15 10 0 6 7 10 15 10 8 0 15 -4 15 -10z m-630 -10 c0 -7 -6 -10 -12 -7 -14 5
-67 -19 -69 -31 -1 -4 -2 -20 -3 -36 -1 -16 -7 -31 -13 -33 -16 -6 -4 -33 13
-33 8 0 14 -5 14 -10 0 -7 -6 -7 -20 0 -24 13 -28 -5 -4 -18 9 -5 14 -15 10
-21 -4 -6 -11 -9 -16 -6 -5 3 -11 1 -15 -5 -3 -6 3 -10 15 -10 15 0 20 -5 17
-14 -3 -8 -1 -17 6 -20 7 -2 2 -5 -10 -5 -16 -1 -21 3 -17 14 7 17 -11 21 -21
5 -7 -12 -52 -14 -59 -2 -2 4 2 15 9 25 13 18 14 18 18 0 3 -11 3 -9 2 5 -1
12 3 22 11 22 19 0 28 20 14 33 -10 9 -11 9 -6 0 7 -13 -25 -35 -45 -31 -8 2
-15 -13 -19 -34 -6 -31 -4 -39 12 -44 10 -3 18 -10 18 -16 0 -7 -5 -6 -15 2
-15 13 -39 5 -30 -11 4 -5 1 -9 -5 -9 -6 0 -9 8 -6 18 3 9 17 76 31 147 14 72
25 130 25 130 0 0 38 2 85 3 58 2 85 0 85 -8z m-882 -15 c3 -3 -22 -5 -56 -5
-34 0 -62 4 -62 9 0 10 108 6 118 -4z m917 -15 c0 -16 -4 -30 -10 -30 -5 0
-10 5 -9 10 1 6 2 19 3 30 2 32 17 23 16 -10z m518 10 c-5 -19 -23 -29 -23
-12 0 7 20 32 26 32 1 0 0 -9 -3 -20z m272 -34 c-2 -11 -7 -38 -10 -59 -6 -36
-7 -38 -24 -23 -26 24 -48 20 -65 -11 -8 -16 -16 -26 -16 -23 -11 44 4 64 49
65 8 0 16 5 18 12 3 7 -3 9 -17 6 -14 -4 -20 -1 -18 8 2 9 -4 13 -14 11 -10
-2 -18 2 -18 8 0 5 5 10 10 10 6 0 10 9 10 21 0 14 5 19 13 16 8 -3 20 -1 27
3 21 13 61 -18 55 -44z m-1668 38 c-3 -3 -12 -4 -19 -1 -8 3 -5 6 6 6 11 1 17
-2 13 -5z m523 -34 c0 -5 -5 -10 -11 -10 -5 0 -7 5 -4 10 3 6 8 10 11 10 2 0
4 -4 4 -10z m50 -17 c0 -22 -2 -25 -10 -13 -13 20 -13 40 0 40 6 0 10 -12 10
-27z m968 12 c-8 -9 -98 -11 -98 -3 0 4 23 8 52 8 28 0 49 -2 46 -5z m463 -12
c13 -16 12 -17 -3 -4 -17 13 -22 21 -14 21 2 0 10 -8 17 -17z m-1484 -38 c-3
-7 -16 -15 -29 -17 -20 -3 -25 -13 -41 -83 -27 -119 -29 -110 25 -107 l46 4
-9 -39 c-12 -51 -12 -51 11 -58 17 -5 19 -12 13 -51 l-6 -44 149 -1 c82 -1
160 -5 174 -9 15 -5 -47 -8 -153 -7 -171 2 -178 1 -182 -18 -19 -106 -39 -175
-49 -172 -6 3 -10 10 -8 16 1 7 -2 9 -8 6 -8 -5 -6 -14 4 -31 18 -26 20 -35 9
-33 -22 3 -54 -15 -49 -27 3 -8 1 -14 -3 -14 -5 0 -11 5 -13 10 -2 6 -13 2
-26 -10 -12 -11 -22 -18 -22 -15 0 3 -9 1 -20 -5 -11 -6 -20 -17 -20 -24 0 -8
-8 -20 -17 -27 -15 -11 -16 -11 -5 1 19 22 14 35 -6 17 -21 -19 -38 -22 -47
-7 -4 6 -3 10 2 9 22 -4 43 2 43 12 0 6 -7 9 -15 5 -16 -6 -17 18 -2 41 6 9 3
11 -7 7 -11 -4 -16 0 -16 11 0 9 4 13 10 10 5 -3 7 0 4 8 -3 8 2 17 10 20 21
8 20 27 -1 28 -11 0 -13 3 -5 6 6 2 9 10 5 15 -4 7 1 9 13 6 15 -4 19 0 19 18
0 15 -4 19 -10 13 -16 -16 -26 -10 -15 11 9 16 8 20 -5 20 -8 0 -15 -6 -15
-14 0 -8 -4 -17 -9 -21 -6 -3 -9 4 -8 15 1 11 5 20 10 20 5 0 6 9 2 19 -4 14
0 21 15 26 27 9 26 25 -2 17 -20 -5 -21 -3 -11 10 7 8 9 18 5 23 -4 4 8 5 26
2 36 -7 41 -1 15 20 -17 13 -17 13 2 11 12 -2 20 3 20 12 1 8 6 14 13 13 6 -2
9 3 6 10 -12 32 -10 87 3 87 8 0 11 4 8 10 -3 5 -1 19 5 30 8 15 8 25 1 34
-13 15 -5 77 11 87 15 10 27 1 12 -9 -13 -9 -24 -38 -17 -46 9 -9 32 20 37 49
7 35 34 77 46 70 6 -3 7 0 4 8 -3 10 8 21 33 33 38 19 50 16 40 -11z m354 19
c8 -9 12 -27 11 -40 -3 -19 1 -24 17 -24 13 0 21 -6 21 -16 0 -13 -7 -15 -37
-9 -46 8 -68 35 -43 50 12 8 13 35 1 35 -5 0 -11 -9 -14 -20 -5 -20 -27 -28
-27 -10 0 14 32 48 46 49 6 1 18 -6 25 -15z m835 -20 c-3 -8 -10 -12 -16 -9
-7 4 -6 14 2 28 12 24 24 8 14 -19z m314 11 c-7 -9 -15 -13 -19 -10 -3 3 1 10
9 15 21 14 24 12 10 -5z m310 -6 c0 -5 -4 -9 -10 -9 -5 0 -10 7 -10 16 0 8 5
12 10 9 6 -3 10 -10 10 -16z m-1780 -13 c0 -3 -4 -8 -10 -11 -5 -3 -10 -1 -10
4 0 6 5 11 10 11 6 0 10 -2 10 -4z m57 -18 c-3 -8 -6 -5 -6 6 -1 11 2 17 5 13
3 -3 4 -12 1 -19z m923 -24 c0 -8 -5 -12 -10 -9 -6 4 -8 11 -5 16 9 14 15 11
15 -7z m98 -17 c17 -13 15 -72 -3 -87 -27 -22 -39 2 -21 44 8 20 12 37 8 37
-4 1 -13 2 -21 3 -8 0 -16 6 -18 13 -5 13 34 6 55 -10z m-1080 -14 c2 -8 -5
-13 -17 -13 -12 0 -21 6 -21 16 0 18 31 15 38 -3z m257 -5 c5 4 5 1 1 -5 -10
-18 -23 -16 -30 3 -5 13 -4 14 7 6 8 -7 18 -8 22 -4z m35 1 c0 -7 9 -9 23 -6
12 4 29 2 37 -3 11 -7 11 -10 2 -10 -7 0 -11 -4 -7 -10 3 -5 13 -6 22 -3 11 4
14 2 11 -8 -3 -8 -14 -13 -24 -11 -16 2 -15 -1 6 -17 21 -17 22 -21 7 -21 -11
0 -24 -14 -33 -35 -8 -19 -27 -41 -44 -50 -32 -17 -40 -35 -15 -35 8 0 15 -2
15 -4 0 -2 3 -11 6 -20 4 -11 1 -16 -10 -16 -14 0 -15 -4 -6 -20 10 -18 7 -20
-32 -22 -139 -4 -165 -3 -188 11 -14 8 -26 16 -28 17 -6 3 11 34 19 34 4 0 6
-6 3 -14 -3 -7 2 -16 11 -20 9 -3 18 0 21 9 7 17 50 20 59 4 4 -6 13 -8 21 -5
8 3 14 -1 14 -9 0 -8 7 -15 16 -15 8 0 12 5 9 10 -3 6 -1 10 4 10 6 0 11 -5
11 -11 0 -8 4 -9 13 0 8 6 17 8 20 4 4 -3 7 -2 7 4 0 6 -10 13 -22 17 -19 5
-21 8 -8 16 13 8 12 10 -2 10 -10 0 -18 -6 -19 -12 -1 -7 -4 -2 -8 12 -10 31
-6 36 14 20 12 -10 15 -10 15 1 0 8 14 25 30 38 33 26 38 41 14 41 -14 0 -14
3 -4 15 11 13 15 13 21 3 10 -15 12 -6 3 16 -7 18 -34 22 -34 4 0 -6 -3 -9 -6
-6 -3 4 -19 2 -36 -3 -17 -4 -35 -6 -40 -2 -15 9 11 21 38 18 23 -2 28 5 25
33 -2 12 11 16 37 13 15 -2 16 11 0 27 -9 9 -9 12 0 12 7 0 12 -5 12 -11z
m972 -14 c5 -6 8 -5 8 4 0 10 3 11 14 2 8 -7 31 -10 55 -7 23 3 42 1 42 -5 1
-5 3 -13 4 -19 1 -5 3 -16 4 -22 1 -9 4 -8 11 2 6 9 6 18 0 24 -28 28 -9 34
95 34 118 0 108 9 105 -88 -1 -30 -5 -59 -9 -63 -7 -7 -387 -10 -448 -3 -23 2
-44 15 -27 17 5 0 18 2 29 5 11 2 33 5 48 6 15 0 26 6 24 12 -2 6 -11 10 -19
10 -9 -1 -15 4 -15 10 0 6 -1 26 -1 45 -2 30 -4 33 -27 27 -14 -4 -25 -2 -25
3 0 18 120 23 132 6z m-1316 -42 c-4 -4 -11 -1 -16 7 -16 25 -11 35 7 17 9 -9
13 -20 9 -24z m-197 -11 c0 -11 -2 -12 -6 -4 -2 6 -9 10 -14 6 -10 -6 -12 9
-3 19 10 10 24 -2 23 -21z m31 11 c0 -10 -4 -24 -8 -31 -6 -8 -9 -2 -9 18 0
16 4 30 9 30 4 0 8 -8 8 -17z m390 -7 c0 -3 -4 -8 -10 -11 -5 -3 -10 -1 -10 4
0 6 5 11 10 11 6 0 10 -2 10 -4z m780 -26 c-8 -5 -19 -10 -25 -10 -5 0 -3 5 5
10 8 5 20 10 25 10 6 0 3 -5 -5 -10z m42 -31 c7 -4 6 -9 -1 -13 -6 -4 -11 -2
-11 4 0 6 -5 8 -12 4 -8 -5 -9 -2 -5 10 4 10 8 23 8 29 1 7 4 3 6 -8 3 -11 10
-23 15 -26z m-743 4 c0 -10 -3 -13 -5 -7 -3 7 -14 10 -24 7 -11 -3 -20 0 -20
6 0 6 11 11 25 11 17 0 25 -5 24 -17z m-116 0 c-7 -2 -19 -2 -25 0 -7 3 -2 5
12 5 14 0 19 -2 13 -5z m924 -35 c5 13 23 17 23 5 0 -5 -5 -15 -10 -23 -9 -13
-12 -13 -21 3 -12 21 -41 23 -33 2 4 -9 0 -15 -10 -15 -20 0 -21 14 -1 30 8 7
15 20 15 29 1 10 7 4 17 -14 9 -17 18 -25 20 -17z m-1575 -3 c-2 -14 -7 -25
-11 -25 -3 0 -6 -16 -7 -36 0 -23 -7 -40 -17 -46 -9 -5 -17 -14 -17 -19 0 -6
5 -7 10 -4 6 3 10 -1 10 -9 0 -9 -6 -16 -12 -16 -10 0 -10 -2 0 -9 10 -6 3
-16 -25 -37 -21 -16 -61 -49 -89 -74 -277 -246 -322 -282 -353 -284 -16 -1
-35 -7 -44 -14 -14 -12 -18 -9 -31 17 -12 23 -14 36 -6 58 11 28 104 123 121
123 5 0 9 4 9 8 0 15 144 124 148 113 2 -6 8 -9 12 -6 5 3 7 11 4 18 -2 7 9
26 25 41 28 26 31 27 46 12 18 -18 35 -21 35 -6 0 6 -7 10 -15 10 -8 0 -15 7
-15 16 0 8 5 12 10 9 6 -3 13 2 17 12 4 10 22 32 40 49 18 17 33 36 33 42 0 6
6 9 14 6 8 -3 16 3 19 16 3 11 19 25 36 31 17 6 31 15 31 20 0 5 6 9 14 9 9 0
12 -8 8 -25z m145 -7 c-3 -8 -6 -5 -6 6 -1 11 2 17 5 13 3 -3 4 -12 1 -19z
m116 7 c-3 -9 -8 -14 -10 -11 -3 3 -2 9 2 15 9 16 15 13 8 -4z m407 -19 c0 -2
-7 -6 -15 -10 -8 -3 -15 -1 -15 4 0 6 7 10 15 10 8 0 15 -2 15 -4z m-580 -27
c0 -6 -4 -7 -10 -4 -5 3 -10 11 -10 16 0 6 5 7 10 4 6 -3 10 -11 10 -16z m65
5 c12 -13 13 -19 4 -30 -7 -8 -9 -17 -5 -21 3 -4 12 2 19 12 12 15 14 16 14 1
0 -9 -4 -16 -9 -16 -4 0 -8 -8 -8 -17 0 -14 -2 -15 -9 -5 -4 8 -11 13 -15 13
-3 -1 -17 -1 -31 -1 -24 0 -25 1 -10 23 8 13 12 27 8 32 -5 4 -2 5 5 1 7 -4
12 -1 12 8 0 20 5 20 25 0z m471 2 c21 -21 17 -26 -16 -22 -34 4 -54 16 -27
16 10 0 17 5 17 10 0 14 9 12 26 -4z m-396 0 c0 -3 -4 -8 -10 -11 -5 -3 -10
-1 -10 4 0 6 5 11 10 11 6 0 10 -2 10 -4z m47 -21 c0 -8 -4 -12 -9 -9 -5 3
-18 -5 -29 -18 -11 -13 -17 -16 -13 -8 10 21 36 50 44 50 4 0 7 -7 7 -15z
m1491 3 c10 -10 15 -10 22 2 5 8 10 12 10 8 0 -3 3 -13 6 -22 5 -13 -3 -15
-45 -15 -28 1 -56 7 -62 15 -6 7 -17 10 -25 7 -8 -3 -14 0 -14 6 0 15 93 14
108 -1z m-1063 -8 c3 -5 1 -10 -4 -10 -6 0 -11 5 -11 10 0 6 2 10 4 10 3 0 8
-4 11 -10z m-610 -11 c-7 -11 -35 -12 -35 -1 0 4 9 8 20 9 11 1 18 -2 15 -8z
m185 -19 c0 -5 -4 -10 -10 -10 -5 0 -10 5 -10 10 0 6 5 10 10 10 6 0 10 -4 10
-10z m1410 0 c0 -5 -2 -10 -4 -10 -3 0 -8 5 -11 10 -3 6 -1 10 4 10 6 0 11 -4
11 -10z m-1617 -32 c-9 -15 -23 -8 -23 12 0 17 2 19 14 8 8 -7 12 -16 9 -20z
m160 -3 c-3 -9 -8 -14 -10 -11 -3 3 -2 9 2 15 9 16 15 13 8 -4z m327 -5 c0 -5
-4 -10 -10 -10 -5 0 -10 5 -10 10 0 6 5 10 10 10 6 0 10 -4 10 -10z m1195 -10
c4 -6 -5 -10 -19 -10 -14 0 -26 5 -26 10 0 6 9 10 19 10 11 0 23 -4 26 -10z
m-1233 -71 c-2 -11 1 -10 10 1 10 12 33 16 93 16 44 0 68 -2 53 -4 -45 -6 -32
-18 16 -16 38 2 44 -1 43 -16 -1 -15 -5 -16 -20 -8 -15 8 -20 5 -24 -11 -4
-17 -8 -19 -19 -10 -11 9 -14 8 -14 -6 0 -12 -6 -16 -20 -12 -15 4 -20 0 -20
-13 0 -12 -6 -17 -17 -15 -10 1 -23 -2 -30 -7 -7 -6 -15 -3 -22 9 -10 17 -10
17 -11 0 0 -10 -8 -21 -17 -24 -10 -4 -24 -14 -30 -22 -11 -13 -12 -10 -9 19
13 110 20 140 30 137 6 -3 10 -11 8 -18z m-522 -24 c-19 -19 -39 -35 -46 -35
-7 0 -16 -9 -19 -20 -3 -11 -11 -20 -16 -20 -6 0 -8 -4 -5 -9 5 -8 -134 -133
-219 -196 -74 -55 -95 -78 -101 -112 -3 -18 -11 -36 -16 -39 -6 -4 -7 2 -3 17
4 13 9 37 10 53 2 25 18 44 81 98 44 38 85 68 92 68 6 0 12 5 12 11 0 12 40
48 53 49 5 0 5 -6 1 -12 -5 -9 -3 -9 9 1 9 7 15 17 12 21 -2 4 4 15 15 25 11
10 20 13 20 7 0 -6 -8 -16 -17 -21 -10 -6 -14 -11 -10 -11 17 0 58 38 47 45
-6 4 13 27 45 53 30 25 55 50 55 54 0 4 8 8 17 8 13 0 8 -9 -17 -35z m923 -29
c-5 -9 -130 -109 -278 -223 -501 -383 -640 -489 -770 -587 -71 -53 -138 -104
-148 -112 -23 -19 -33 -18 -16 3 21 25 297 242 614 483 55 41 138 105 185 141
324 250 414 318 418 315 2 -3 0 -12 -5 -20z m-743 -16 c0 -5 -4 -10 -10 -10
-5 0 -10 5 -10 10 0 6 5 10 10 10 6 0 10 -4 10 -10z m-217 -30 c-3 -12 -8 -19
-11 -16 -5 6 5 36 12 36 2 0 2 -9 -1 -20z m97 -55 c0 -5 -5 -3 -10 5 -5 8 -10
20 -10 25 0 6 5 3 10 -5 5 -8 10 -19 10 -25z m-33 -17 c-3 -8 -6 -5 -6 6 -1
11 2 17 5 13 3 -3 4 -12 1 -19z m-78 10 c-2 -2 -17 -14 -34 -28 l-30 -25 24
28 c14 15 29 27 34 27 6 0 8 -1 6 -2z m122 -27 c-21 -16 -22 -20 -8 -24 16 -5
16 -5 1 -3 -27 2 -28 25 -2 35 34 14 36 13 9 -8z m1849 7 c0 -4 -7 -8 -15 -8
-8 0 -15 4 -15 8 0 5 7 9 15 9 8 0 15 -4 15 -9z m-1758 -40 c-8 -8 -9 -4 -5
13 4 13 8 18 11 10 2 -7 -1 -18 -6 -23z m-78 -24 c3 -8 2 -12 -4 -9 -6 3 -10
1 -10 -4 0 -6 -4 -11 -8 -11 -5 0 -9 7 -9 15 0 8 4 12 9 9 4 -3 8 0 8 5 0 16
7 13 14 -5z m-310 -68 c-3 -8 -13 -17 -22 -21 -13 -5 -13 -2 3 15 21 24 26 25
19 6z m286 -38 c0 -5 -4 -8 -10 -8 -5 0 -10 10 -10 23 0 18 2 19 10 7 5 -8 10
-18 10 -22z m70 16 c0 -8 -19 -13 -24 -6 -3 5 1 9 9 9 8 0 15 -2 15 -3z m1890
-18 c0 -3 -4 -8 -10 -11 -5 -3 -10 -1 -10 4 0 6 5 11 10 11 6 0 10 -2 10 -4z
m-2525 -65 c-4 -17 -15 -36 -25 -41 -25 -13 -25 -13 -25 15 0 28 15 35 16 8 0
-15 2 -15 8 2 5 11 4 25 -1 32 -6 8 -3 13 9 15 25 6 26 4 18 -31z m-23 -86
c-2 -14 -6 -25 -8 -25 -2 0 -4 11 -4 25 0 14 4 25 9 25 4 0 6 -11 3 -25z m87
-45 c-10 -38 -19 -73 -19 -77 0 -3 -3 -4 -6 0 -8 8 27 147 37 147 4 0 -1 -31
-12 -70z m31 0 c0 -5 -4 -10 -10 -10 -5 0 -10 5 -10 10 0 6 5 10 10 10 6 0 10
-4 10 -10z m20 -100 c0 -5 -5 -10 -11 -10 -5 0 -7 5 -4 10 3 6 8 10 11 10 2 0
4 -4 4 -10z m33 -15 c-3 -9 -8 -14 -10 -11 -3 3 -2 9 2 15 9 16 15 13 8 -4z
m-58 -5 c3 -5 1 -10 -4 -10 -6 0 -11 5 -11 10 0 6 2 10 4 10 3 0 8 -4 11 -10z
m-218 -6 c-3 -3 -12 -4 -19 -1 -8 3 -5 6 6 6 11 1 17 -2 13 -5z m141 -71 c-3
-35 -1 -37 30 -44 52 -11 48 -17 -13 -18 -44 0 -54 3 -47 12 6 7 13 29 17 50
9 48 18 48 13 0z m-138 -8 c-7 -8 -24 -14 -39 -14 l-26 2 28 4 c16 3 31 11 34
19 3 8 8 13 11 10 3 -3 -1 -12 -8 -21z m30 -35 l0 -31 -90 2 c-49 1 -90 5 -90
10 0 5 8 9 18 10 9 0 26 2 37 4 11 3 41 5 68 6 32 2 47 7 47 16 0 7 2 13 5 13
3 0 5 -14 5 -30z m293 -17 c-13 -2 -35 -2 -50 0 -16 2 -5 4 22 4 28 0 40 -2
28 -4z m-383 -122 c-9 -33 -5 -41 22 -41 22 0 23 -18 1 -42 -24 -27 5 -24 34
4 13 12 23 17 23 12 -1 -15 -50 -46 -66 -40 -7 3 -14 13 -14 23 -1 15 -4 14
-22 -7 -18 -21 -20 -22 -15 -5 3 11 11 44 17 73 7 28 16 52 20 52 5 0 5 -13 0
-29z m82 11 c17 -7 17 -8 -1 -19 -16 -10 -20 -9 -24 8 -5 20 -2 22 25 11z m78
-32 c0 -12 -35 -31 -44 -23 -12 12 -6 22 9 17 8 -4 15 -1 15 5 0 6 5 11 10 11
6 0 10 -4 10 -10z m-61 -23 c0 -9 -2 -9 -6 0 -3 9 -10 10 -24 3 -12 -7 -19 -7
-19 -1 0 10 30 20 43 14 4 -2 7 -10 6 -16z m271 -32 c-7 -8 -18 -15 -24 -15
-6 0 -2 7 8 15 25 19 32 19 16 0z m-390 -75 c0 -5 -4 -10 -10 -10 -5 0 -10 5
-10 10 0 6 5 10 10 10 6 0 10 -4 10 -10z m275 -16 c-51 -42 -54 -44 -62 -44
-12 1 70 70 82 70 6 -1 -3 -12 -20 -26z m-292 -221 c-26 -20 -85 -65 -131
-101 -46 -35 -85 -62 -88 -60 -5 6 246 198 259 198 5 0 -13 -16 -40 -37z
m-243 -176 c0 -1 -23 -25 -52 -52 -55 -53 -47 -33 10 22 29 30 42 39 42 30z"/>
<path d="M1955 4519 c-4 -6 -5 -12 -2 -15 2 -3 7 2 10 11 7 17 1 20 -8 4z"/>
<path d="M3910 4550 c0 -5 5 -10 11 -10 5 0 7 5 4 10 -3 6 -8 10 -11 10 -2 0
-4 -4 -4 -10z"/>
<path d="M3798 4573 c7 -3 16 -2 19 1 4 3 -2 6 -13 5 -11 0 -14 -3 -6 -6z"/>
<path d="M4185 4120 c13 -15 18 -35 17 -73 0 -40 1 -46 8 -27 14 44 11 86 -8
103 -26 24 -39 21 -17 -3z"/>
<path d="M4010 4035 c-8 -9 -8 -15 -2 -15 12 0 26 19 19 26 -2 2 -10 -2 -17
-11z"/>
<path d="M3250 4250 c0 -5 16 -10 35 -10 19 0 35 5 35 10 0 6 -16 10 -35 10
-19 0 -35 -4 -35 -10z"/>
<path d="M2660 3601 c0 -5 5 -13 10 -16 6 -3 10 -2 10 4 0 5 -4 13 -10 16 -5
3 -10 2 -10 -4z"/>
<path d="M2615 3540 c-3 -5 -28 -10 -56 -10 -27 0 -49 -4 -49 -8 0 -4 24 -6
53 -5 28 2 65 3 80 4 24 0 27 2 17 14 -14 17 -36 20 -45 5z"/>
<path d="M2247 3467 c-4 -10 -7 -26 -7 -35 1 -15 2 -15 11 1 6 10 9 25 7 35
-3 16 -4 15 -11 -1z"/>
<path d="M2231 3374 c0 -11 3 -14 6 -6 3 7 2 16 -1 19 -3 4 -6 -2 -5 -13z"/>
<path d="M2220 3330 c0 -11 2 -20 4 -20 2 0 6 9 9 20 3 11 1 20 -4 20 -5 0 -9
-9 -9 -20z"/>
<path d="M4270 4060 c0 -5 11 -10 25 -10 14 0 25 5 25 10 0 6 -11 10 -25 10
-14 0 -25 -4 -25 -10z"/>
<path d="M4123 3600 c3 -13 0 -20 -10 -20 -8 0 -12 4 -8 9 3 5 1 12 -5 16 -6
4 -10 -14 -10 -49 0 -52 2 -56 24 -56 21 0 24 6 30 50 4 28 4 55 1 60 -11 18
-27 10 -22 -10z m0 -56 c-4 -12 -8 -13 -14 -3 -9 15 -2 32 11 24 5 -3 6 -13 3
-21z"/>
<path d="M3265 3750 l-80 -6 88 -2 c57 -1 86 2 82 8 -3 6 -7 9 -8 8 -1 -1 -38
-5 -82 -8z"/>
<path d="M3340 3650 c0 -5 4 -10 9 -10 6 0 13 5 16 10 3 6 -1 10 -9 10 -9 0
-16 -4 -16 -10z"/>
<path d="M2363 3332 c-61 -49 -77 -68 -64 -76 10 -7 128 91 130 107 2 15 -19
6 -66 -31z"/>
<path d="M3175 2890 c-3 -5 1 -10 10 -10 9 0 13 5 10 10 -3 6 -8 10 -10 10 -2
0 -7 -4 -10 -10z"/>
<path d="M3122 2840 c-10 -16 -10 -20 2 -20 19 0 27 13 17 28 -4 8 -11 5 -19
-8z"/>
<path d="M3075 2828 c-11 -12 -14 -18 -7 -14 6 4 12 2 12 -3 0 -23 15 -10 16
14 1 14 1 25 0 24 0 0 -10 -10 -21 -21z"/>
<path d="M3136 2794 c-9 -24 -7 -31 4 -14 5 8 10 11 10 5 0 -19 -18 -38 -29
-31 -6 4 -11 2 -11 -3 0 -6 5 -11 12 -11 6 0 3 -7 -8 -15 -18 -13 -17 -14 19
-15 20 0 37 5 37 10 0 6 -5 10 -11 10 -9 0 -9 4 0 14 14 17 10 66 -5 66 -7 0
-15 -7 -18 -16z"/>
<path d="M3058 2763 c6 -2 12 -12 12 -21 0 -13 3 -13 12 -4 10 10 10 15 -2 22
-8 5 -19 9 -25 9 -5 0 -4 -3 3 -6z"/>
<path d="M2491 2834 c0 -11 3 -14 6 -6 3 7 2 16 -1 19 -3 4 -6 -2 -5 -13z"/>
<path d="M2360 2765 c-8 -9 -8 -15 -2 -15 12 0 26 19 19 26 -2 2 -10 -2 -17
-11z"/>
<path d="M2466 2715 c-3 -8 -1 -15 4 -15 6 0 10 7 10 15 0 8 -2 15 -4 15 -2 0
-6 -7 -10 -15z"/>
<path d="M3338 2543 c12 -2 22 -9 22 -14 0 -14 17 -11 23 4 4 10 -5 14 -31 14
-21 0 -27 -2 -14 -4z"/>
<path d="M3570 2451 c0 -5 6 -11 13 -14 6 -3 -3 -5 -21 -4 -18 0 -35 -2 -38
-5 -2 -3 16 -6 42 -6 46 -1 46 -1 29 18 -20 22 -25 24 -25 11z"/>
<path d="M3350 2440 c0 -5 5 -10 11 -10 5 0 7 5 4 10 -3 6 -8 10 -11 10 -2 0
-4 -4 -4 -10z"/>
<path d="M3400 2440 c0 -5 5 -10 11 -10 5 0 7 5 4 10 -3 6 -8 10 -11 10 -2 0
-4 -4 -4 -10z"/>
<path d="M3265 2430 c-3 -5 -1 -10 4 -10 6 0 11 5 11 10 0 6 -2 10 -4 10 -3 0
-8 -4 -11 -10z"/>
<path d="M3495 2430 c3 -5 8 -10 11 -10 2 0 4 5 4 10 0 6 -5 10 -11 10 -5 0
-7 -4 -4 -10z"/>
<path d="M2232 2548 c-15 -15 -16 -38 0 -38 6 0 8 3 5 7 -4 3 0 15 10 25 18
20 4 25 -15 6z"/>
<path d="M2195 2530 c3 -5 8 -10 11 -10 2 0 4 5 4 10 0 6 -5 10 -11 10 -5 0
-7 -4 -4 -10z"/>
<path d="M2220 2460 c-13 -8 -12 -10 3 -10 9 0 17 5 17 10 0 12 -1 12 -20 0z"/>
<path d="M3118 2543 c-10 -2 -18 -9 -18 -15 0 -5 7 -7 16 -4 12 4 15 2 10 -9
-3 -8 -1 -15 4 -15 5 0 9 11 8 25 -1 14 -3 24 -3 24 0 -1 -8 -3 -17 -6z"/>
<path d="M1948 2413 c7 -3 16 -2 19 1 4 3 -2 6 -13 5 -11 0 -14 -3 -6 -6z"/>
<path d="M1934 2351 c3 -16 -1 -30 -12 -38 -15 -13 -14 -13 6 -3 24 12 25 15
11 45 -8 18 -9 17 -5 -4z"/>
<path d="M1893 2289 c3 -9 0 -23 -6 -30 -10 -11 -9 -11 4 -1 12 9 19 9 29 -1
12 -10 -4 14 -29 43 -2 3 -2 -2 2 -11z"/>
<path d="M1900 2240 c0 -5 5 -10 11 -10 5 0 7 5 4 10 -3 6 -8 10 -11 10 -2 0
-4 -4 -4 -10z"/>
<path d="M1965 2210 c10 -11 20 -20 23 -20 3 0 -3 9 -13 20 -10 11 -20 20 -23
20 -3 0 3 -9 13 -20z"/>
<path d="M1885 2210 c3 -5 10 -10 16 -10 5 0 9 5 9 10 0 6 -7 10 -16 10 -8 0
-12 -4 -9 -10z"/>
<path d="M1875 2180 c3 -5 8 -10 11 -10 2 0 4 5 4 10 0 6 -5 10 -11 10 -5 0
-7 -4 -4 -10z"/>
<path d="M2006 2062 c-3 -5 1 -9 9 -9 8 0 12 4 9 9 -3 4 -7 8 -9 8 -2 0 -6 -4
-9 -8z"/>
<path d="M2005 2030 c3 -5 8 -10 11 -10 2 0 4 5 4 10 0 6 -5 10 -11 10 -5 0
-7 -4 -4 -10z"/>
<path d="M1815 2010 c3 -5 8 -10 11 -10 2 0 4 5 4 10 0 6 -5 10 -11 10 -5 0
-7 -4 -4 -10z"/>
<path d="M1780 1990 c-13 -8 -12 -10 3 -10 9 0 17 5 17 10 0 12 -1 12 -20 0z"/>
<path d="M1809 1793 c-12 -14 -12 -15 0 -9 10 7 12 3 6 -15 -4 -13 -4 -21 0
-17 7 7 16 58 10 58 -1 0 -9 -8 -16 -17z"/>
<path d="M2360 2429 c0 -5 5 -7 10 -4 6 3 10 8 10 11 0 2 -4 4 -10 4 -5 0 -10
-5 -10 -11z"/>
<path d="M3132 2339 c-7 -11 -11 -23 -9 -25 7 -7 29 24 25 36 -2 6 -9 1 -16
-11z"/>
<path d="M2330 2340 c0 -5 5 -10 11 -10 5 0 7 5 4 10 -3 6 -8 10 -11 10 -2 0
-4 -4 -4 -10z"/>
<path d="M2382 2310 c0 -14 2 -19 5 -12 2 6 2 18 0 25 -3 6 -5 1 -5 -13z"/>
<path d="M2175 2110 c-3 -5 -1 -10 4 -10 6 0 11 5 11 10 0 6 -2 10 -4 10 -3 0
-8 -4 -11 -10z"/>
<path d="M2200 2110 c0 -5 5 -10 11 -10 5 0 7 5 4 10 -3 6 -8 10 -11 10 -2 0
-4 -4 -4 -10z"/>
<path d="M3370 2336 c0 -8 51 -13 56 -5 3 5 -9 9 -25 9 -17 0 -31 -2 -31 -4z"/>
<path d="M3290 2310 c0 -5 5 -10 10 -10 6 0 10 5 10 10 0 6 -4 10 -10 10 -5 0
-10 -4 -10 -10z"/>
<path d="M3322 2297 c-13 -6 -21 -17 -20 -26 3 -13 19 -16 81 -17 42 -1 77 2
77 7 0 5 6 9 14 9 8 0 17 4 20 9 4 5 -14 7 -39 4 -33 -3 -45 -1 -45 9 0 9 -3
9 -8 2 -9 -13 -45 -27 -38 -15 11 17 -18 29 -42 18z m-1 -30 c-10 -9 -11 -8
-5 6 3 10 9 15 12 12 3 -3 0 -11 -7 -18z"/>
<path d="M1092 1808 c3 -7 13 -15 23 -17 17 -3 17 -2 3 13 -20 19 -31 21 -26
4z"/>
<path d="M1680 2160 c0 -5 4 -10 9 -10 6 0 13 5 16 10 3 6 -1 10 -9 10 -9 0
-16 -4 -16 -10z"/>
<path d="M7300 4730 c0 -6 -67 -11 -167 -12 l-168 -3 -12 -75 -12 -75 5 85 5
85 -26 -30 c-14 -16 -62 -78 -108 -137 -45 -59 -86 -107 -92 -107 -5 0 -38 58
-72 130 l-62 129 -313 0 c-172 0 -322 3 -333 5 -16 5 -24 -4 -44 -50 l-24 -55
-56 31 c-151 86 -123 78 -277 73 -76 -2 -302 -6 -500 -8 l-361 -3 -60 -45
c-32 -25 -65 -53 -72 -62 -21 -25 -26 -221 -27 -1121 -1 -714 -1 -766 6 -400
5 231 9 606 11 833 2 227 6 415 11 418 4 3 7 -454 6 -1015 l-1 -1019 45 -44
c24 -24 81 -74 126 -112 44 -38 83 -75 86 -82 3 -8 11 -14 17 -14 8 0 351
-298 379 -330 13 -15 98 -80 104 -80 4 0 14 -7 22 -15 9 -8 20 -15 25 -15 12
0 12 27 -1 35 -16 10 -12 23 8 27 10 3 -4 10 -33 19 -34 10 -54 22 -62 39 -7
14 -13 21 -13 15 0 -11 -20 16 -20 28 0 4 7 7 15 7 13 0 14 4 4 23 -7 12 -12
34 -11 48 1 14 -7 35 -18 47 -12 12 -18 28 -14 35 5 9 4 9 -5 1 -15 -14 -53 2
-70 28 -12 19 -20 18 161 22 55 1 73 8 46 19 -8 3 -6 6 5 6 9 1 17 -5 17 -12
0 -7 8 -13 19 -14 20 -2 24 26 6 39 -9 7 17 13 39 9 5 -1 6 5 3 13 -3 8 -3 17
1 21 4 3 7 14 7 23 0 9 9 18 20 20 16 3 18 1 8 -9 -18 -18 -16 -34 2 -19 9 7
13 21 10 31 -4 11 -3 19 2 19 9 0 46 56 49 75 1 6 30 39 63 74 34 35 61 70 61
76 0 7 8 19 18 29 27 23 180 30 205 8 9 -8 18 -11 18 -6 1 5 4 -4 8 -21 6 -26
11 -30 36 -28 17 1 22 -1 12 -4 -9 -2 -14 -9 -10 -15 4 -8 0 -9 -13 -4 -10 4
-15 4 -11 0 4 -4 1 -14 -6 -22 -10 -13 -9 -15 11 -10 24 7 32 -16 10 -25 -10
-4 -10 -7 0 -15 13 -9 6 -42 -12 -54 -13 -9 13 -40 27 -31 6 3 4 -3 -4 -14
-24 -33 -86 -83 -103 -83 -10 0 -15 -4 -12 -9 4 -5 -21 -36 -54 -69 -68 -68
-83 -98 -17 -36 23 23 119 112 212 199 94 87 170 166 171 174 1 18 0 27 -54
481 -50 419 -66 573 -60 591 5 15 18 -75 48 -341 11 -91 31 -260 45 -377 14
-117 27 -234 29 -260 2 -26 7 -65 11 -85 7 -36 5 -39 -60 -99 -36 -34 -70 -70
-76 -80 -8 -16 21 -44 198 -195 115 -98 254 -217 309 -265 l102 -88 151 -3
c83 -2 151 0 151 3 0 5 -254 220 -344 291 -17 14 -19 19 -8 30 8 8 15 9 20 3
4 -6 59 -53 122 -106 63 -53 130 -108 147 -123 l33 -27 -5 63 c-3 35 -10 77
-15 94 -10 29 -39 195 -40 222 0 6 5 12 11 12 6 0 9 -7 6 -15 -4 -8 -2 -17 4
-21 5 -3 9 -13 8 -22 -1 -10 0 -24 3 -32 3 -8 11 -44 17 -80 7 -36 38 -133 69
-216 l57 -152 95 -1 c52 0 129 -4 171 -7 l76 -6 38 -193 37 -193 -26 -38 c-14
-21 -26 -43 -26 -49 1 -5 207 -174 459 -374 l457 -364 180 -62 c98 -34 232
-81 297 -103 64 -23 117 -39 117 -37 0 4 -222 181 -400 318 -294 226 -325 252
-308 255 9 2 44 -18 79 -45 34 -26 83 -64 108 -83 25 -20 55 -43 66 -53 11 -9
92 -73 179 -142 143 -112 185 -141 174 -117 -2 4 -29 59 -61 123 -31 64 -57
120 -57 125 1 5 10 -8 21 -28 11 -21 21 -38 23 -38 2 0 -14 45 -35 99 -21 54
-57 163 -78 242 -22 79 -83 302 -136 494 -54 193 -115 415 -136 495 -36 132
-49 169 -49 144 0 -5 9 -41 20 -79 20 -69 24 -92 16 -84 -8 8 -147 522 -144
531 2 5 19 -48 37 -117 19 -69 36 -123 38 -121 3 2 -12 66 -33 141 -25 92 -40
132 -46 123 -6 -8 -7 -3 -3 15 3 18 2 26 -4 23 -14 -9 -23 27 -16 61 5 19 4
24 -3 15 -7 -11 -11 -7 -16 13 -4 15 -5 30 -1 33 3 3 5 -3 5 -13 0 -10 2 -16
5 -13 3 3 -2 36 -11 74 -14 53 -19 64 -26 48 -6 -13 -6 -10 -3 11 3 18 -9 81
-31 160 -103 375 -145 527 -255 930 -138 506 -174 634 -231 836 -27 97 -38
153 -33 165 5 11 7 22 7 27 -1 4 4 6 11 5 6 -2 11 2 10 9 -2 8 4 10 14 6 13
-5 15 -2 9 12 -4 11 -4 16 0 13 9 -9 44 10 44 24 0 7 -4 7 -14 -1 -17 -14
-303 -13 -312 0 -7 12 -24 11 -24 -1z m-2739 -215 c-8 -25 -9 -21 -9 30 0 50
1 55 9 30 5 -17 5 -42 0 -60z m343 63 c-9 -14 -174 -172 -224 -215 -29 -24
-41 -28 -65 -22 -25 5 -18 14 8 10 4 0 7 8 7 20 0 16 -4 19 -20 14 -17 -5 -19
-2 -17 16 2 13 10 25 17 27 7 3 10 0 7 -6 -4 -5 3 -12 14 -15 16 -4 19 -11 14
-29 -5 -20 -5 -21 5 -5 9 14 8 23 -4 42 -14 21 -14 24 7 40 12 9 17 14 11 11
-6 -3 -11 1 -11 10 0 9 7 12 19 8 10 -3 27 0 36 7 9 7 2 -3 -16 -22 -29 -31
-31 -37 -18 -48 13 -11 27 -3 86 49 38 35 70 67 70 72 0 5 5 6 10 3 6 -4 20 5
33 19 22 26 44 36 31 14z m26 -12 c0 -2 -8 -10 -17 -17 -16 -13 -17 -12 -4 4
13 16 21 21 21 13z m1107 -48 c-3 -7 -5 -2 -5 12 0 14 2 19 5 13 2 -7 2 -19 0
-25z m-977 10 c69 3 100 1 100 -7 0 -11 -25 -14 -124 -11 l-59 2 30 -26 c36
-31 85 -36 77 -8 -4 13 -2 12 7 -3 13 -19 13 -19 20 5 5 19 7 13 8 -23 1 -43
-1 -47 -14 -33 -15 15 -51 16 -73 2 -7 -4 -15 -1 -18 8 -5 14 -11 12 -36 -9
-16 -14 -36 -25 -44 -25 -8 0 -14 -4 -14 -10 0 -9 -40 -55 -134 -153 -25 -26
-46 -55 -46 -65 1 -16 2 -16 15 1 20 27 90 32 113 9 14 -14 22 -16 35 -8 22
14 25 8 19 -41 -3 -31 -8 -40 -18 -36 -9 3 -12 0 -9 -9 3 -7 -8 -27 -25 -43
-16 -16 -30 -32 -30 -37 0 -5 13 6 30 24 31 35 43 20 13 -16 -14 -17 -13 -17
8 2 15 13 26 31 24 40 -1 9 0 11 2 5 6 -17 12 -16 37 4 19 16 -12 -21 -55 -67
-17 -18 -59 -21 -71 -5 -5 6 -8 3 -8 -7 0 -18 -87 -98 -107 -98 -24 0 -13 -36
20 -68 20 -20 40 -30 49 -27 17 7 43 -19 34 -33 -3 -6 2 -9 11 -8 9 0 18 -4
20 -10 5 -16 -58 -16 -79 0 -9 6 -18 23 -20 36 -2 17 -9 24 -22 23 -21 -1 -67
37 -51 43 6 2 9 30 7 65 -3 45 0 65 12 78 9 10 14 25 10 35 -3 9 -1 16 5 16 8
0 8 4 -1 14 -7 8 -16 12 -20 9 -5 -2 -8 2 -8 9 0 8 -5 6 -11 -4 -11 -20 -29
-24 -29 -7 0 5 4 8 9 5 9 -6 21 61 12 69 -2 3 -12 -2 -22 -11 -16 -15 -17 -14
-12 4 5 21 53 37 53 18 0 -6 5 -4 10 4 8 12 10 12 10 1 0 -8 3 -11 6 -8 7 6
-45 60 -75 77 -14 8 -14 9 2 10 11 0 17 8 18 23 0 21 15 36 236 231 37 32 68
55 70 50 2 -6 47 -8 103 -6z m175 0 c25 2 45 0 45 -5 0 -5 -25 -10 -55 -11
-30 0 -55 3 -55 7 0 12 14 23 17 14 2 -4 23 -7 48 -5z m1305 -103 c-12 -15
-30 -12 -30 5 0 5 7 7 15 4 11 -5 15 1 16 22 2 25 2 26 6 6 3 -13 -1 -30 -7
-37z m-1910 35 c0 -5 -4 -10 -10 -10 -5 0 -10 5 -10 10 0 6 5 10 10 10 6 0 10
-4 10 -10z m2015 0 c3 -5 1 -10 -4 -10 -6 0 -11 5 -11 10 0 6 2 10 4 10 3 0 8
-4 11 -10z m-586 -65 c0 -31 -2 -36 -9 -20 -13 29 -13 94 0 75 5 -8 9 -33 9
-55z m1161 58 c-14 -3 -28 -10 -32 -17 -5 -7 -8 -7 -8 0 0 17 12 24 39 23 l26
-2 -25 -4z m-2020 -7 c0 -3 -4 -8 -10 -11 -5 -3 -10 -1 -10 4 0 6 5 11 10 11
6 0 10 -2 10 -4z m294 -5 c8 -13 -10 -17 -51 -13 -25 3 -31 7 -22 13 18 12 66
11 73 0z m111 -11 c-5 -8 -53 -1 -59 9 -3 4 11 5 30 3 18 -2 32 -8 29 -12z
m653 -30 c36 0 51 4 46 11 -5 8 -1 8 14 0 22 -12 210 -10 229 2 6 4 13 0 16
-8 5 -12 -23 -15 -183 -17 -200 -3 -201 -3 -240 47 -11 14 -5 12 25 -8 31 -21
52 -27 93 -27z m402 -7 c0 -32 -5 -28 -14 10 -4 19 -3 26 4 22 5 -3 10 -18 10
-32z m573 7 c-3 -11 -9 -20 -15 -20 -5 0 -4 9 2 20 6 11 12 20 14 20 2 0 2 -9
-1 -20z m202 4 c-46 -7 -125 -8 -125 -1 0 4 33 6 73 6 39 -1 63 -3 52 -5z
m-2878 -41 c-3 -10 -5 -4 -5 12 0 17 2 24 5 18 2 -7 2 -21 0 -30z m1008 17
c-8 -13 5 -60 17 -60 5 0 6 17 4 38 -5 30 -4 32 3 11 5 -15 12 -78 16 -140 3
-63 9 -122 11 -131 3 -11 0 -18 -8 -18 -10 0 -13 10 -10 34 5 43 -13 54 -39
24 -20 -22 -20 -22 0 9 20 30 21 32 4 43 -16 10 -15 11 5 6 19 -3 23 -1 20 15
-2 11 -7 20 -13 20 -22 1 -33 22 -29 55 4 29 1 34 -16 34 -12 0 -20 7 -20 17
0 13 -3 14 -12 5 -15 -15 -42 -16 -33 -2 4 6 10 8 15 5 4 -3 10 2 14 10 5 15
-8 20 -46 17 -10 -1 -18 3 -18 8 0 6 31 10 71 10 42 0 68 -4 64 -10z m155 -7
c-14 -2 -31 -12 -37 -21 -12 -14 -13 -14 -13 4 0 16 7 20 38 21 22 0 27 -1 12
-4z m1759 -9 c2 -2 -28 -4 -67 -4 -45 0 -72 4 -72 11 0 7 22 8 68 4 37 -4 69
-9 71 -11z m-1686 -1 c-7 -2 -21 -2 -30 0 -10 3 -4 5 12 5 17 0 24 -2 18 -5z
m484 1 c-3 -3 -12 -4 -19 -1 -8 3 -5 6 6 6 11 1 17 -2 13 -5z m-1595 -36 c-7
-7 -12 -8 -12 -2 0 6 3 14 7 17 3 4 9 5 12 2 2 -3 -1 -11 -7 -17z m1741 -10
c11 -5 17 -5 17 2 0 5 7 10 16 10 9 0 12 -5 8 -12 -5 -9 -2 -8 9 1 10 8 21 10
25 6 4 -4 1 -10 -6 -12 -10 -4 -9 -8 4 -17 9 -7 14 -18 10 -24 -10 -16 -26
-15 -26 2 0 7 -11 16 -25 18 -17 4 -25 1 -25 -8 0 -15 -2 -16 -105 -18 -77 -2
-95 1 -95 16 0 5 4 7 8 4 5 -3 9 1 9 9 0 8 -5 13 -10 12 -5 -1 -11 3 -14 10
-5 15 172 16 200 1z m157 2 c0 -5 -4 -10 -10 -10 -5 0 -10 5 -10 10 0 6 5 10
10 10 6 0 10 -4 10 -10z m-933 -22 c-3 -8 -6 -5 -6 6 -1 11 2 17 5 13 3 -3 4
-12 1 -19z m563 -28 c0 -16 -32 -41 -49 -38 -14 3 -24 41 -14 60 5 9 63 -12
63 -22z m380 4 c0 -8 -4 -14 -9 -14 -5 0 -12 -8 -14 -17 -4 -14 -5 -12 -6 5 0
12 4 22 10 22 6 0 8 7 5 16 -3 8 -2 12 4 9 6 -3 10 -13 10 -21z m-1370 7 c0
-12 -149 -10 -156 1 -3 4 31 8 75 8 45 0 81 -4 81 -9z m205 -14 c3 -12 12
-114 20 -227 8 -113 20 -248 25 -300 5 -52 17 -216 25 -365 9 -148 22 -346 30
-440 l13 -170 -26 -28 c-38 -40 -82 -71 -90 -62 -4 4 15 26 43 50 l49 43 -17
264 c-10 144 -24 349 -32 453 -14 180 -29 414 -40 590 -3 44 -8 106 -11 138
l-6 57 -83 0 c-46 0 -86 4 -89 9 -4 5 35 9 89 10 90 0 95 -1 100 -22z m232
-24 c-3 -10 -5 -4 -5 12 0 17 2 24 5 18 2 -7 2 -21 0 -30z m-1023 12 c-4 -8
-9 -15 -13 -15 -4 0 -8 7 -8 15 0 8 6 15 13 15 8 0 11 -6 8 -15z m2016 -5 c0
-11 -2 -20 -4 -20 -2 0 -6 9 -9 20 -3 11 -1 20 4 20 5 0 9 -9 9 -20z m-1790
-19 c0 -6 -4 -13 -10 -16 -5 -3 -10 1 -10 9 0 9 5 16 10 16 6 0 10 -4 10 -9z
m200 -43 c0 -29 3 -83 7 -120 l6 -68 117 0 118 0 6 -67 c4 -38 15 -221 26
-408 11 -187 27 -452 36 -590 8 -137 13 -259 10 -271 -3 -12 -2 -24 3 -26 4
-2 -55 -60 -133 -129 l-141 -126 -6 41 c-4 22 -9 147 -13 276 -4 129 -13 397
-21 595 -8 198 -16 446 -20 550 -3 105 -8 236 -11 293 -5 72 -3 102 5 102 7 0
11 -20 11 -52z m1220 18 c0 -3 -4 -8 -10 -11 -5 -3 -10 -1 -10 4 0 6 5 11 10
11 6 0 10 -2 10 -4z m240 0 c0 -2 -7 -7 -16 -10 -8 -3 -12 -2 -9 4 6 10 25 14
25 6z m-140 -72 c-19 -8 -45 -25 -57 -36 -13 -12 -23 -16 -23 -10 0 6 8 16 18
22 12 8 13 13 4 16 -25 11 0 24 46 24 l47 -1 -35 -15z m60 12 c0 -3 -4 -8 -10
-11 -5 -3 -10 -1 -10 4 0 6 5 11 10 11 6 0 10 -2 10 -4z m40 -12 c0 -2 -7 -4
-15 -4 -8 0 -15 4 -15 10 0 5 7 7 15 4 8 -4 15 -8 15 -10z m59 -47 c6 -35 11
-70 10 -78 -2 -22 -17 33 -18 66 -1 17 -6 37 -11 45 -9 13 -11 13 -20 0 -7
-12 -9 -10 -7 8 1 13 8 22 18 22 13 0 20 -15 28 -63z m66 53 c-3 -5 -12 -10
-18 -10 -7 0 -6 4 3 10 19 12 23 12 15 0z m280 0 c3 -5 1 -10 -4 -10 -6 0 -11
5 -11 10 0 6 2 10 4 10 3 0 8 -4 11 -10z m-632 -7 c-7 -2 -21 -2 -30 0 -10 3
-4 5 12 5 17 0 24 -2 18 -5z m2 -34 c4 -5 -5 -9 -19 -9 -14 0 -26 4 -26 8 0
11 39 12 45 1z m503 -66 c-16 -2 -40 -2 -55 0 -16 2 -3 4 27 4 30 0 43 -2 28
-4z m-1819 -40 c-11 -13 -11 -17 -1 -20 6 -3 10 -9 6 -14 -3 -5 -1 -9 3 -9 5
0 8 -13 7 -29 -3 -42 10 -58 33 -41 10 8 -12 -17 -49 -55 l-66 -68 -26 29
c-14 16 -26 39 -26 51 0 13 -9 28 -20 35 -19 12 -19 13 2 35 12 13 29 23 37
23 9 0 36 18 61 40 49 42 60 50 39 23z m1919 -13 l2 -30 -126 0 c-92 0 -125 3
-122 12 2 6 13 13 24 14 68 9 85 26 21 21 -27 -2 -50 0 -53 5 -3 4 53 8 123 8
l129 0 2 -30z m-751 -12 c-3 -8 -6 -5 -6 6 -1 11 2 17 5 13 3 -3 4 -12 1 -19z
m-1497 8 c0 -3 -4 -8 -10 -11 -5 -3 -10 -1 -10 4 0 6 5 11 10 11 6 0 10 -2 10
-4z m47 -129 c-2 -23 -3 -1 -3 48 0 50 1 68 3 42 2 -26 2 -67 0 -90z m896 101
c9 -10 13 -18 7 -18 -5 0 -10 -4 -10 -9 0 -5 8 -7 18 -4 10 2 24 -3 31 -11 11
-14 11 -16 -3 -16 -10 0 -14 -5 -10 -11 4 -8 9 -8 17 0 23 23 36 10 47 -46 7
-32 13 -97 14 -145 1 -77 -2 -89 -20 -107 -17 -15 -24 -17 -34 -8 -10 9 -11 9
-5 -1 11 -20 -31 -59 -65 -60 -17 0 -30 3 -30 8 0 4 18 32 41 61 l41 54 -4
118 c-4 114 -5 118 -35 150 -34 36 -47 64 -30 63 7 0 20 -8 30 -18z m-946 -60
c-2 -13 -4 -5 -4 17 -1 22 1 32 4 23 2 -10 2 -28 0 -40z m1516 9 c3 -22 2 -35
-4 -32 -5 4 -9 22 -9 42 0 45 5 40 13 -10z m370 36 c-7 -2 -19 -2 -25 0 -7 3
-2 5 12 5 14 0 19 -2 13 -5z m-1693 -6 c0 -2 -10 -12 -22 -23 l-23 -19 19 23
c18 21 26 27 26 19z m904 -94 c12 -164 16 -184 40 -193 17 -7 17 -9 4 -9 -19
-1 -22 -12 -11 -49 5 -20 10 -23 35 -18 24 5 31 1 47 -24 10 -17 20 -28 23
-25 2 3 5 -2 5 -10 0 -13 -2 -13 -17 0 -20 18 -50 20 -50 3 0 -7 -11 0 -25 16
-14 16 -25 23 -25 16 0 -8 -10 -25 -22 -38 -13 -14 -17 -22 -10 -18 6 4 12 2
12 -4 0 -7 -7 -10 -15 -7 -8 4 -22 -4 -32 -16 -10 -13 -25 -27 -33 -32 -17
-10 -19 -14 47 71 l39 51 -8 84 c-16 166 -23 297 -17 293 4 -2 10 -43 13 -91z
m949 80 c-7 -2 -19 -2 -25 0 -7 3 -2 5 12 5 14 0 19 -2 13 -5z m-1871 -50 c22
-20 23 -39 3 -47 -8 -3 -21 4 -30 17 -29 42 -10 64 27 30z m1878 7 c0 -5 -7
-7 -15 -4 -8 4 -15 8 -15 10 0 2 7 4 15 4 8 0 15 -4 15 -10z m13 -27 c-7 -2
-19 -2 -25 0 -7 3 -2 5 12 5 14 0 19 -2 13 -5z m-527 -119 c8 -55 26 -184 39
-289 13 -104 36 -275 50 -380 14 -104 37 -280 50 -390 14 -110 27 -215 29
-234 3 -20 2 -30 -3 -25 -10 9 -44 254 -111 789 -22 176 -42 337 -45 358 -2
21 -9 78 -15 125 -6 48 -13 103 -17 122 -3 19 -3 32 1 29 4 -3 13 -51 22 -105z
m-1529 90 c-3 -3 -12 -4 -19 -1 -8 3 -5 6 6 6 11 1 17 -2 13 -5z m344 -8 c-10
-11 -8 -16 8 -21 26 -8 27 -23 4 -42 -10 -8 -12 -12 -5 -8 7 4 12 0 12 -9 0
-8 8 -20 18 -25 16 -10 16 -10 0 -11 -12 0 -18 -8 -18 -23 0 -30 -51 -76 -97
-89 -55 -15 -63 -7 -63 67 0 64 1 65 33 79 17 7 50 32 72 55 37 39 60 56 36
27z m1799 2 c0 -9 3 -8 10 2 5 8 12 12 15 8 4 -3 20 -76 37 -162 23 -117 34
-156 45 -156 11 0 13 -7 8 -27 -3 -16 -11 -29 -16 -31 -5 -2 -9 -9 -9 -16 0
-7 -11 -25 -25 -40 -14 -15 -25 -31 -25 -36 0 -5 -4 -12 -10 -15 -6 -4 -7 1
-4 12 5 16 4 16 -10 -1 -19 -23 -20 -17 -5 18 7 14 15 24 18 22 3 -2 6 14 6
37 0 24 -5 42 -13 45 -7 2 -11 0 -10 -5 2 -4 -5 -19 -15 -33 l-18 -25 7 29 c5
23 4 28 -7 24 -10 -4 -15 4 -16 26 -2 17 -7 32 -13 34 -5 2 -10 11 -10 20 0
13 -3 13 -16 -4 -15 -18 -15 -18 -10 4 3 17 1 22 -9 18 -10 -4 -13 3 -10 24 2
17 -1 33 -7 36 -7 4 -8 2 -4 -4 4 -7 -1 -10 -14 -9 -23 1 -28 27 -5 27 8 0 15
5 15 10 0 6 -4 10 -10 10 -5 0 -8 6 -6 13 1 6 1 9 -1 5 -9 -15 -33 -8 -33 10
0 14 2 15 10 2 8 -12 10 -11 10 8 0 12 7 25 16 29 9 3 25 24 35 47 10 23 19
34 19 25 0 -9 7 -20 16 -23 14 -5 14 -9 3 -23 -11 -13 -11 -15 -1 -9 8 5 18 1
26 -10 12 -16 13 -13 11 19 -2 21 0 35 5 32 5 -3 12 0 16 6 4 7 3 9 -4 5 -6
-3 -17 0 -25 8 -8 8 -36 17 -63 19 -39 3 -34 4 24 5 52 1 72 -1 72 -10z m-362
-49 c-3 -20 -5 -19 -9 9 -3 20 -2 29 4 23 5 -5 7 -19 5 -32z m52 -11 c0 -51
-5 -47 -14 10 -4 29 -3 41 4 37 5 -3 10 -25 10 -47z m469 -178 c29 -143 36
-197 28 -202 -9 -6 -9 -8 0 -8 14 0 20 -18 31 -96 6 -44 5 -61 -3 -61 -7 0
-12 7 -11 16 1 10 -6 15 -18 13 -11 -2 -15 1 -11 8 4 6 13 9 21 6 17 -6 19 22
3 44 -8 12 -9 10 -4 -8 5 -15 3 -22 -6 -20 -7 2 -27 -23 -44 -54 l-31 -58 -16
28 c-8 15 -13 34 -11 42 3 9 -1 7 -11 -5 -20 -25 -20 -18 -1 35 8 23 15 45 15
47 0 3 -7 0 -15 -7 -22 -18 -20 -11 28 97 l43 98 -14 65 c-27 137 -40 224 -34
238 10 26 20 -10 61 -218z m-2302 204 c-3 -3 -12 -4 -19 -1 -8 3 -5 6 6 6 11
1 17 -2 13 -5z m99 -3 c-6 -9 -74 -7 -84 3 -3 3 16 6 42 6 26 0 45 -4 42 -9z
m4 -30 c0 -9 -60 -61 -71 -61 -15 0 -21 22 -8 30 8 6 1 10 -22 13 -25 3 -20 4
19 5 33 1 51 6 47 12 -3 6 3 10 14 10 12 0 21 -4 21 -9z m2203 -25 c-3 -5 -2
-7 3 -4 5 3 36 2 69 -2 l60 -8 -70 2 c-67 1 -70 2 -73 26 -2 19 -1 22 7 10 5
-8 7 -18 4 -24z m-2137 -19 c1 -10 4 -37 6 -60 3 -37 1 -42 -17 -40 -19 1 -19
1 -2 -11 10 -8 17 -26 17 -45 0 -29 3 -31 34 -31 l34 0 6 -237 c3 -131 8 -294
11 -363 3 -69 5 -159 6 -200 0 -59 2 -70 10 -51 5 14 10 40 11 58 1 18 7 33
13 33 7 0 11 -10 9 -22 -2 -13 -6 -36 -9 -53 -2 -16 -2 -21 1 -10 3 11 10 24
15 30 5 5 9 17 9 27 0 14 8 18 35 18 29 0 37 -5 45 -26 9 -21 6 -29 -12 -44
l-23 -18 25 5 c21 4 25 1 25 -21 0 -22 -5 -26 -43 -32 -23 -3 -51 -4 -62 -1
-11 3 -20 1 -20 -4 0 -5 27 -9 61 -9 48 0 60 -3 56 -14 -3 -7 0 -19 6 -25 8
-8 7 -11 -6 -11 -14 0 -16 -7 -11 -37 3 -21 11 -44 16 -50 7 -9 7 -13 -1 -13
-7 0 -9 -4 -6 -10 3 -5 2 -10 -2 -10 -5 0 -14 -13 -20 -29 -9 -26 -7 -32 15
-55 34 -33 20 -47 -14 -15 l-27 24 18 -27 c22 -36 16 -35 -26 2 -19 16 -37 30
-41 30 -5 0 -8 10 -8 21 0 18 2 19 15 9 9 -7 15 -8 15 -2 0 5 -7 12 -15 15 -9
4 -15 26 -18 69 -3 63 -3 63 -5 -14 -1 -43 -5 -78 -9 -78 -5 0 -27 18 -51 40
-24 22 -44 40 -45 40 -8 0 -5 -50 3 -51 6 -1 13 -2 18 -3 6 -1 50 -46 140
-144 15 -17 15 -19 -2 -25 -10 -4 -13 -1 -10 7 3 8 -3 16 -15 19 -14 3 -18 1
-14 -9 7 -20 -10 -17 -38 5 -13 10 -35 22 -48 26 l-25 8 22 17 c11 10 18 20
15 24 -3 3 -13 0 -21 -7 -13 -10 -15 -9 -8 8 13 34 12 39 -11 41 -13 1 -23 -3
-23 -7 0 -5 5 -9 10 -9 6 0 10 -4 10 -10 0 -5 -6 -10 -14 -10 -8 0 -23 -10
-33 -23 -10 -13 -24 -22 -31 -19 -15 5 -44 -17 -37 -28 3 -5 0 -12 -6 -16 -8
-5 -10 0 -6 17 3 13 2 33 -2 43 -7 18 -8 18 -14 2 -4 -10 -5 -22 -1 -27 10
-17 -13 -9 -31 11 -9 10 -22 18 -28 17 -6 -1 -17 11 -25 27 -11 22 -12 30 -2
36 9 6 9 9 0 15 -6 4 -9 18 -6 33 3 15 6 53 8 85 2 61 12 70 41 37 9 -11 14
-20 11 -20 -4 0 -2 -6 4 -13 13 -16 147 -23 137 -8 -3 6 -25 11 -48 11 -39 0
-48 6 -100 58 -52 53 -57 61 -48 84 7 18 6 29 -2 37 -6 6 -7 11 -1 11 5 0 9
16 9 35 -1 19 1 35 4 35 3 0 42 -33 86 -74 44 -41 82 -73 84 -71 2 2 -33 39
-76 82 -78 77 -93 103 -97 168 -3 51 2 55 65 55 l59 0 -3 301 c-1 165 1 303 5
305 13 8 9 36 -8 48 -24 18 -7 49 22 42 26 -7 27 -6 18 17 -3 9 -13 13 -25 10
-24 -7 -25 10 -1 43 20 28 64 29 68 1z m2301 7 c-3 -3 -12 -4 -19 -1 -8 3 -5
6 6 6 11 1 17 -2 13 -5z m251 -1 c-16 -2 -40 -2 -55 0 -16 2 -3 4 27 4 30 0
43 -2 28 -4z m140 0 c-21 -2 -55 -2 -75 0 -21 2 -4 4 37 4 41 0 58 -2 38 -4z
m-1481 -25 c-3 -8 -6 -5 -6 6 -1 11 2 17 5 13 3 -3 4 -12 1 -19z m410 0 c-3
-8 -6 -5 -6 6 -1 11 2 17 5 13 3 -3 4 -12 1 -19z m53 12 c0 -5 -2 -10 -4 -10
-3 0 -8 5 -11 10 -3 6 -1 10 4 10 6 0 11 -4 11 -10z m-1830 -35 c-14 -17 -30
-20 -30 -6 0 5 8 12 18 14 9 3 19 5 21 6 2 0 -2 -6 -9 -14z m2431 -2 c1 -10 3
-31 4 -48 3 -28 2 -28 -7 -7 -16 33 -28 27 -17 -10 5 -18 9 -34 9 -35 0 -2 5
-3 11 -3 5 0 7 5 4 10 -3 6 -2 10 4 10 6 0 13 -17 16 -37 4 -21 9 -46 12 -55
7 -27 -4 -22 -21 10 -15 26 -15 26 -16 4 0 -34 20 -68 30 -52 8 13 15 -6 40
-115 7 -27 14 -58 17 -67 4 -16 -3 -18 -54 -18 -50 0 -59 3 -60 18 -2 22 -72
380 -78 400 -3 8 11 12 50 12 45 0 55 -3 56 -17z m399 2 c0 -8 -2 -15 -4 -15
-2 0 -6 7 -10 15 -3 8 -1 15 4 15 6 0 10 -7 10 -15z m-1063 -140 c-63 -75 -77
-90 -77 -79 0 6 8 19 18 30 73 81 81 95 76 148 l-4 51 14 -50 14 -50 -41 -50z
m540 113 c-3 -7 -5 -2 -5 12 0 14 2 19 5 13 2 -7 2 -19 0 -25z m-930 -35 c-3
-10 -5 -2 -5 17 0 19 2 27 5 18 2 -10 2 -26 0 -35z m-1350 -7 c20 -23 21 -36
25 -335 3 -281 -1 -341 -18 -296 -4 9 -20 15 -43 16 -20 1 -28 3 -18 6 15 4
16 8 6 19 -9 12 -9 17 3 27 8 7 22 24 31 39 16 26 16 28 -2 40 -10 6 -17 17
-14 23 2 7 -3 20 -12 29 -14 14 -15 17 -1 22 8 3 12 12 9 20 -3 8 1 14 10 14
10 0 13 7 10 20 -4 14 -1 20 8 18 7 -2 14 4 16 13 3 11 -5 19 -24 24 -15 5
-31 8 -35 7 -10 -2 -10 12 -2 21 4 3 13 -1 21 -9 20 -20 30 -9 12 13 -8 9 -9
14 -3 10 9 -5 11 14 9 68 -2 41 0 74 3 73 20 -2 22 4 7 19 -14 14 -18 14 -26
2 -6 -9 -7 -1 -2 21 3 19 10 37 15 38 4 2 8 12 8 23 0 13 -7 19 -24 19 -14 0
-28 5 -31 10 -13 21 42 9 62 -14z m2311 -96 l0 -25 -8 25 c-4 14 -8 36 -8 50
l0 25 8 -25 c4 -14 8 -36 8 -50z m-951 13 c-3 -10 -5 -4 -5 12 0 17 2 24 5 18
2 -7 2 -21 0 -30z m-1117 -23 c0 -16 -4 -30 -9 -30 -4 0 -8 13 -7 30 1 39 16
39 16 0z m43 5 c-3 -8 -10 -15 -15 -15 -7 0 -6 5 1 13 6 8 7 18 3 22 -4 5 -2
5 5 1 7 -4 10 -13 6 -21z m22 -25 c-21 -22 -35 -43 -30 -47 4 -5 10 -2 12 5 3
6 9 12 14 12 5 0 23 15 39 33 26 29 29 30 30 11 0 -11 -16 -35 -35 -53 -19
-17 -35 -37 -35 -43 0 -6 -3 -8 -7 -5 -3 4 -12 2 -20 -4 -9 -9 -13 -8 -13 0 0
6 -4 11 -10 11 -18 0 -11 -60 8 -67 33 -12 42 -24 32 -43 -13 -24 0 -34 17
-12 8 9 11 11 7 3 -4 -8 -8 -26 -10 -40 -1 -14 -3 -26 -4 -26 -1 0 -3 -8 -5
-17 -2 -13 3 -18 18 -18 12 0 29 -5 37 -10 11 -7 0 -10 -38 -10 -33 0 -51 -4
-47 -10 3 -5 24 -10 45 -10 50 0 77 -10 58 -21 -19 -12 -116 -11 -123 1 -4 6
-9 76 -12 156 l-6 146 54 49 c66 59 77 63 24 9z m1905 -595 c234 -585 309
-776 453 -1157 12 -32 25 -58 28 -58 4 0 9 312 13 693 3 380 9 746 13 812 l6
120 24 -95 c32 -130 123 -520 123 -528 0 -58 -97 316 -117 450 -3 21 -9 36
-13 33 -6 -4 -22 -1244 -20 -1497 1 -43 -3 -78 -8 -78 -5 0 -37 73 -72 163
-34 89 -71 180 -80 202 -10 22 -73 180 -140 350 -67 171 -128 324 -135 340
-33 76 -275 705 -275 715 0 5 -5 10 -10 10 -12 0 -13 7 29 -230 65 -360 171
-992 171 -1016 0 -8 -4 -14 -9 -14 -4 0 -14 35 -20 78 -7 42 -17 97 -22 122
-14 70 -159 959 -195 1195 -6 39 30 -47 256 -610z m-843 563 c-2 -13 -4 -5 -4
17 -1 22 1 32 4 23 2 -10 2 -28 0 -40z m-201 16 c-2 -13 -17 -16 -78 -17 -42
-1 -74 1 -71 6 2 4 33 7 69 7 36 0 64 4 64 10 0 6 4 10 9 10 5 0 8 -7 7 -16z
m64 -10 c0 -2 -9 -4 -20 -4 -11 0 -20 4 -20 9 0 5 9 7 20 4 11 -3 20 -7 20 -9z
m1092 -19 c3 -13 1 -22 -3 -19 -9 5 -13 44 -5 44 2 0 6 -11 8 -25z m-1149 -14
c4 -1 7 -6 7 -12 0 -6 -7 -8 -16 -5 -11 4 -14 1 -12 -12 2 -9 10 -16 16 -14
21 4 13 -14 -10 -26 -20 -10 -19 -10 12 -6 19 2 29 2 23 -2 -7 -3 -13 -10 -13
-15 0 -6 5 -7 10 -4 6 4 17 1 25 -5 8 -6 19 -9 25 -5 5 3 10 1 10 -4 0 -6 -9
-11 -20 -11 -13 0 -20 -7 -20 -19 0 -15 6 -18 31 -15 19 2 28 0 23 -7 -3 -6
-12 -8 -20 -5 -7 3 -16 1 -19 -4 -4 -6 3 -10 14 -10 12 0 21 -5 21 -11 0 -6
-7 -8 -16 -5 -8 3 -12 2 -9 -4 3 -6 1 -10 -4 -10 -6 0 -11 -4 -11 -10 0 -5 22
-10 49 -10 28 0 53 -4 56 -10 4 -6 -35 -10 -110 -10 -111 0 -116 -1 -125 -22
-8 -20 -9 -19 -9 13 l-1 35 48 -1 c26 -1 35 0 20 2 -23 4 -28 9 -28 33 0 15 9
38 20 51 11 13 20 20 19 14 -1 -5 -1 -17 0 -25 1 -13 3 -13 10 -1 14 21 2 41
-22 38 -16 -1 -22 3 -21 16 2 19 -12 24 -18 6 -3 -8 -10 -8 -26 2 -25 16 -31
52 -7 43 18 -7 19 0 5 27 -8 15 -7 19 4 19 9 0 20 -9 26 -20 6 -11 16 -20 23
-19 9 0 9 2 0 6 -7 2 -13 13 -13 22 0 12 7 17 23 15 12 -1 25 -3 30 -3z m-166
-23 c-3 -8 -6 -5 -6 6 -1 11 2 17 5 13 3 -3 4 -12 1 -19z m216 15 c-7 -2 -19
-2 -25 0 -7 3 -2 5 12 5 14 0 19 -2 13 -5z m-1253 -7 c0 -3 -4 -8 -10 -11 -5
-3 -10 -1 -10 4 0 6 5 11 10 11 6 0 10 -2 10 -4z m1235 -16 c3 -5 1 -10 -4
-10 -6 0 -11 5 -11 10 0 6 2 10 4 10 3 0 8 -4 11 -10z m-188 -32 c-3 -8 -6 -5
-6 6 -1 11 2 17 5 13 3 -3 4 -12 1 -19z m805 -72 c26 -27 45 -52 42 -55 -3 -3
-12 3 -20 13 -8 11 -14 15 -14 8 0 -8 -7 -9 -26 -2 -34 13 -41 13 -26 -2 17
-17 15 -31 -4 -24 -12 4 -14 1 -9 -14 3 -11 -34 19 -84 68 l-90 87 67 5 c75 6
75 6 164 -84z m-7 69 c1 -5 7 -21 14 -34 l13 -23 -25 18 c-14 11 -30 27 -37
37 -10 16 -8 18 12 15 13 -2 23 -7 23 -13z m-1532 -9 c4 -10 1 -13 -9 -9 -7 3
-14 9 -14 14 0 14 17 10 23 -5z m55 3 c18 -6 30 -15 27 -20 -6 -8 -50 7 -69
23 -14 11 5 10 42 -3z m701 -178 c6 -63 9 -116 7 -119 -9 -8 -86 -14 -112 -8
-25 7 -26 8 -9 26 10 11 15 28 12 40 -3 14 3 26 21 40 20 15 22 18 7 13 -19
-6 -19 -6 -2 14 9 11 17 25 17 31 0 7 5 12 10 12 6 0 10 -5 10 -12 0 -9 3 -9
13 1 10 10 9 14 -5 22 -10 6 -18 18 -17 27 0 14 2 13 9 -3 6 -15 9 -6 10 35 2
48 3 51 10 25 5 -16 13 -81 19 -144z m38 107 c-3 -7 -5 -2 -5 12 0 14 2 19 5
13 2 -7 2 -19 0 -25z m-1107 13 c0 -17 -18 -21 -24 -6 -3 9 0 15 9 15 8 0 15
-4 15 -9z m2545 -21 c3 -5 1 -10 -4 -10 -6 0 -11 5 -11 10 0 6 2 10 4 10 3 0
8 -4 11 -10z m-2174 -13 c-6 -8 -7 -18 -3 -22 4 -5 1 -5 -6 -1 -10 6 -10 11
-1 22 6 8 14 14 16 14 3 0 0 -6 -6 -13z m749 -19 c0 -19 -2 -20 -10 -8 -13 19
-13 30 0 30 6 0 10 -10 10 -22z m1345 -9 l60 -6 -52 -1 c-39 -2 -53 -6 -53
-16 0 -9 13 -17 33 -19 l32 -5 -35 2 c-27 1 -36 6 -41 26 -6 20 -7 21 -8 5 -1
-17 13 -98 44 -270 4 -22 5 -37 1 -34 -7 7 -66 293 -66 321 0 13 4 17 13 11 6
-4 39 -11 72 -14z m-145 -17 c0 -8 -1 -13 -3 -11 -1 2 -9 12 -16 22 -12 15
-12 17 3 11 9 -3 16 -13 16 -22z m-33 -27 c-15 -16 -19 -13 -11 9 3 9 10 13
15 10 5 -3 3 -11 -4 -19z m83 -8 c0 -5 -4 -5 -10 -2 -5 3 -10 14 -10 23 0 15
2 15 10 2 5 -8 10 -19 10 -23z m-21 -18 c1 -3 -5 -6 -13 -6 -7 0 -12 7 -11 16
2 9 4 21 5 26 1 9 18 -21 19 -36z m174 24 c-7 -2 -19 -2 -25 0 -7 3 -2 5 12 5
14 0 19 -2 13 -5z m-709 -9 c9 -3 16 -11 16 -16 0 -6 -6 -6 -14 1 -12 10 -15
8 -19 -11 -4 -20 -4 -20 -6 5 -1 29 0 30 23 21z m556 -29 c0 -8 -4 -15 -10
-15 -5 0 -7 7 -4 15 4 8 8 15 10 15 2 0 4 -7 4 -15z m-1082 0 c-8 -8 -127 -10
-134 -2 -4 4 26 7 66 7 40 0 71 -2 68 -5z m-158 -59 c0 -19 6 -37 13 -39 9 -4
9 -6 -1 -6 -13 -1 -16 5 -26 52 -4 15 -2 27 4 27 5 0 10 -15 10 -34z m185 24
c-40 -6 -36 -13 18 -24 15 -4 25 -11 22 -16 -8 -13 -192 -13 -200 0 -3 6 3 10
14 10 12 0 21 5 21 10 0 6 -7 10 -15 10 -8 0 -15 5 -15 10 0 6 38 9 98 9 70
-1 86 -4 57 -9z m525 -51 l29 -27 -29 -4 c-32 -5 -41 11 -39 67 1 21 3 24 6
10 3 -11 18 -32 33 -46z m127 9 c-3 -8 -6 -5 -6 6 -1 11 2 17 5 13 3 -3 4 -12
1 -19z m-1577 2 c0 -17 -107 -16 -124 1 -6 5 16 9 57 9 38 0 67 -4 67 -10z
m1356 -32 c-16 -11 -56 -10 -56 2 0 6 11 10 25 10 17 0 25 6 26 18 0 14 2 14
8 -3 5 -12 4 -23 -3 -27z m564 32 c0 -5 -2 -10 -4 -10 -3 0 -8 5 -11 10 -3 6
-1 10 4 10 6 0 11 -4 11 -10z m-2026 -52 c-3 -4 2 -5 10 -2 13 5 14 -1 10 -33
-2 -21 -9 -40 -14 -41 -6 -2 -8 -8 -5 -12 3 -5 1 -11 -5 -15 -6 -4 -10 20 -10
67 0 48 3 68 9 58 6 -8 7 -18 5 -22z m929 25 c-7 -2 -19 -2 -25 0 -7 3 -2 5
12 5 14 0 19 -2 13 -5z m788 -226 c-8 -8 -11 3 -12 38 0 28 -2 59 -4 70 -2 11
-6 45 -9 75 -3 30 4 4 15 -59 15 -82 18 -116 10 -124z m-642 180 c5 -13 5 -27
-1 -34 -6 -8 -3 -15 9 -22 16 -9 15 -10 -9 -11 -15 0 -30 -4 -33 -10 -6 -10 3
-13 40 -12 17 1 17 0 3 -4 -10 -3 -18 -12 -18 -20 0 -8 4 -12 10 -9 5 3 18 1
27 -4 16 -9 15 -11 -7 -11 -14 -1 -19 -4 -12 -7 6 -2 12 -12 12 -21 0 -12 -3
-13 -12 -4 -18 18 -30 14 -23 -8 5 -16 2 -20 -17 -21 l-23 -2 23 -4 c26 -5 28
-18 5 -32 -16 -9 -16 -10 4 -11 26 0 38 -15 22 -26 -8 -4 -9 -3 -5 4 4 7 1 12
-8 12 -25 0 -19 -19 9 -30 14 -5 25 -16 25 -25 0 -8 7 -15 16 -15 13 0 14 -3
5 -14 -10 -12 -7 -15 16 -19 24 -3 22 -4 -9 -6 -20 0 -40 -6 -44 -13 -5 -8 -2
-9 9 -5 23 9 22 -12 0 -21 -12 -5 -18 -18 -18 -39 0 -27 4 -33 20 -33 11 0 31
-7 44 -16 18 -13 20 -18 10 -25 -11 -7 -9 -9 6 -9 12 0 16 -3 9 -10 -5 -5 -96
-13 -201 -16 l-190 -7 -34 -43 c-19 -23 -45 -57 -59 -75 -24 -32 -107 -124
-180 -200 -19 -20 -37 -40 -40 -45 -3 -5 -74 -8 -159 -6 -120 3 -160 7 -178
19 l-25 16 27 11 26 11 -21 23 c-11 12 -16 22 -11 22 5 0 13 -5 16 -10 10 -16
25 -1 18 17 -4 11 -3 14 5 9 7 -4 12 -2 12 3 0 11 -19 15 -51 13 -14 -1 -15 2
-5 23 6 14 15 20 20 15 11 -11 35 17 36 43 0 10 8 17 19 17 21 0 35 25 32 54
-2 10 2 15 8 12 19 -12 170 96 171 122 0 8 5 10 12 6 8 -5 9 -2 5 9 -4 11 -1
17 6 17 7 0 23 14 35 30 15 20 31 30 48 30 17 0 24 4 21 13 -3 8 6 12 27 12
27 0 31 3 28 24 -3 26 32 71 55 71 7 0 13 6 13 13 0 9 2 9 9 -1 7 -11 9 -11
14 2 3 8 1 18 -4 22 -6 4 3 13 20 22 17 8 29 17 26 20 -2 3 1 12 8 20 8 10 8
13 1 9 -12 -7 -29 21 -19 31 3 3 5 0 5 -6 0 -17 19 -15 37 4 15 14 15 15 0 12
-9 -2 -16 0 -16 5 -2 22 0 27 13 27 17 0 28 24 16 36 -4 5 -11 20 -15 34 -7
22 -6 23 9 11 9 -7 16 -12 17 -10 9 47 9 48 -22 47 -16 -1 -32 -5 -35 -10 -3
-4 -10 -8 -16 -8 -6 0 -3 8 6 19 15 17 34 19 192 19 172 1 175 1 183 -21z
m401 -2 c0 -23 -4 -25 -42 -24 l-43 1 33 10 c17 6 32 17 32 24 0 8 5 14 10 14
6 0 10 -11 10 -25z m76 3 c-10 -6 -20 -7 -24 -3 -9 8 20 25 31 18 5 -3 2 -10
-7 -15z m-1455 -27 c-6 -10 -9 -29 -7 -42 2 -13 7 -43 10 -66 3 -23 9 -48 12
-57 5 -14 -4 -16 -60 -16 -63 0 -66 1 -67 25 -1 14 -2 34 -2 46 -1 14 19 39
58 75 33 29 61 53 63 54 1 0 -2 -8 -7 -19z m1460 -9 c-14 -27 -14 -33 1 -29 7
1 14 -9 15 -23 2 -22 2 -23 -6 -5 -9 19 -10 19 -10 -2 -1 -12 6 -28 14 -37 8
-8 15 -19 15 -24 0 -5 10 -9 23 -9 66 -1 87 -4 87 -13 0 -6 -40 -10 -100 -10
-60 0 -100 4 -100 10 0 6 13 10 28 10 29 0 29 0 21 48 -11 67 -11 104 1 97 6
-3 10 -1 10 6 0 7 3 10 6 7 3 -4 1 -15 -5 -26z m-67 -64 c5 -32 4 -48 -3 -48
-6 0 -11 12 -11 26 0 16 -4 23 -12 18 -7 -5 -8 -3 -2 7 4 8 7 25 5 39 -5 47
16 7 23 -42z m-24 -68 c0 -5 -10 -10 -22 -9 -22 0 -22 1 -3 9 11 5 21 9 23 9
1 1 2 -3 2 -9z m740 -98 c5 -31 19 -95 30 -142 17 -76 27 -160 16 -149 -6 6
-76 359 -75 378 1 27 18 -25 29 -87z m-610 47 c0 -6 -9 -9 -20 -6 -11 3 -20 1
-20 -3 0 -5 15 -12 33 -15 25 -5 32 -11 33 -31 2 -23 1 -24 -12 -7 -13 17 -14
17 -7 -2 6 -18 5 -18 -10 -6 -15 12 -17 11 -17 -3 0 -10 -5 -14 -10 -11 -6 4
-7 12 -1 22 10 20 -8 42 -36 44 -17 1 -17 2 0 6 9 2 17 9 17 14 0 5 11 9 25 9
14 0 25 -5 25 -11z m50 -4 c0 -8 -6 -15 -14 -15 -8 0 -16 7 -20 15 -4 10 1 15
14 15 11 0 20 -7 20 -15z m-45 -116 c-6 -19 -4 -21 14 -16 11 3 21 1 21 -4 0
-5 7 -9 16 -9 8 0 12 5 8 11 -4 8 0 8 15 0 11 -7 21 -19 21 -27 0 -8 5 -12 10
-9 6 3 10 1 10 -4 0 -6 -7 -11 -15 -11 -8 0 -15 -4 -15 -10 0 -9 14 -14 33
-11 4 0 7 -3 7 -9 0 -5 -13 -10 -30 -10 -16 0 -30 -4 -30 -10 0 -5 7 -7 15 -4
8 4 15 1 15 -5 0 -6 3 -10 8 -9 14 3 42 -14 36 -23 -3 -5 0 -9 7 -9 6 0 9 -10
7 -23 -3 -15 0 -24 9 -24 10 0 11 13 7 56 -10 81 2 59 20 -39 31 -166 96 -562
96 -584 0 -19 -4 -22 -25 -18 -29 5 -29 6 -13 32 15 23 6 33 -32 36 -15 1 -33
5 -39 8 -5 4 -12 2 -16 -4 -3 -5 -1 -10 6 -10 7 0 9 -3 6 -6 -9 -10 -74 37
-86 61 -9 18 -16 65 -54 325 -12 82 -13 85 -42 91 -17 4 15 7 73 8 61 1 102
-3 103 -9 3 -20 4 -25 12 -37 4 -6 1 -14 -5 -16 -9 -4 -10 -8 -2 -14 6 -4 14
-15 17 -23 6 -13 3 37 -5 103 -2 15 -17 17 -155 17 -139 0 -153 2 -153 18 0 9
4 13 8 7 10 -14 52 -19 52 -6 0 6 -4 11 -9 11 -6 0 -8 10 -6 22 3 12 -3 27
-13 35 -15 11 -15 12 -1 7 10 -3 20 0 24 5 3 6 10 9 14 7 4 -3 8 1 8 9 0 8 -6
15 -13 15 -7 0 -16 5 -20 12 -4 7 -3 8 4 4 14 -8 16 6 3 20 -16 16 6 56 27 50
13 -4 19 -1 19 9 0 9 -6 14 -14 11 -7 -3 -13 1 -13 9 0 10 10 15 31 15 26 0
29 -3 24 -21z m65 11 c0 -5 -11 -9 -25 -8 -14 1 -25 6 -25 10 0 4 11 8 25 8
14 0 25 -4 25 -10z m992 -172 c21 -84 62 -263 93 -398 31 -135 90 -389 131
-565 41 -176 72 -325 69 -332 -2 -7 -1 -13 4 -13 5 0 11 -13 14 -29 3 -16 9
-41 13 -56 5 -20 4 -26 -5 -21 -6 4 -11 17 -11 29 0 13 -6 31 -14 42 -7 11
-21 56 -30 100 -10 44 -55 244 -101 445 -119 517 -215 940 -215 946 0 2 4 4 8
4 4 0 24 -69 44 -152z m-382 39 c0 -18 2 -19 10 -7 7 11 12 12 21 3 8 -8 8
-19 0 -40 -10 -26 -10 -27 -8 -3 1 16 -3 25 -12 25 -8 0 -18 12 -22 28 -4 16
-3 25 2 21 5 -3 9 -15 9 -27z m-61 -36 c5 -24 6 -39 1 -35 -4 5 -11 29 -14 54
-7 53 -1 44 13 -19z m128 7 c-3 -7 -5 -2 -5 12 0 14 2 19 5 13 2 -7 2 -19 0
-25z m-857 -29 c0 -11 -4 -17 -10 -14 -5 3 -10 13 -10 21 0 8 5 14 10 14 6 0
10 -9 10 -21z m740 -49 c0 -5 -9 -10 -20 -10 -11 0 -20 5 -20 10 0 6 9 10 20
10 11 0 20 -4 20 -10z m-1223 -6 c-3 -3 -12 -4 -19 -1 -8 3 -5 6 6 6 11 1 17
-2 13 -5z m1267 -29 c4 -17 8 -48 11 -70 4 -37 3 -37 -9 10 -14 49 -20 103
-12 94 3 -2 7 -18 10 -34z m-729 -9 c19 -8 35 -21 35 -29 0 -8 3 -35 6 -61 l7
-46 -40 0 -40 0 -12 57 c-20 100 -17 104 44 79z m305 -16 c0 -5 -2 -10 -4 -10
-3 0 -8 5 -11 10 -3 6 -1 10 4 10 6 0 11 -4 11 -10z m1255 -10 c-4 -6 -62 -10
-143 -9 -86 0 -130 4 -117 9 29 12 268 12 260 0z m-2900 -10 c3 -5 1 -10 -4
-10 -6 0 -11 5 -11 10 0 6 2 10 4 10 3 0 8 -4 11 -10z m1218 -22 c7 -25 -45
-98 -69 -98 -12 0 -12 5 3 25 10 13 22 25 27 25 18 0 34 34 25 52 -6 11 -6 18
-1 18 6 0 12 -10 15 -22z m-273 2 c0 -5 -5 -10 -11 -10 -5 0 -7 5 -4 10 3 6 8
10 11 10 2 0 4 -4 4 -10z m-26 -25 c3 -8 1 -15 -4 -15 -6 0 -10 7 -10 15 0 8
2 15 4 15 2 0 6 -7 10 -15z m516 -185 c22 -178 23 -185 11 -175 -6 6 -11 35
-12 65 -1 30 -5 64 -9 74 -6 18 -8 18 -28 -4 -18 -20 -22 -21 -22 -7 0 9 -4
17 -10 17 -21 0 -8 -37 26 -73 20 -21 34 -41 31 -44 -8 -7 -107 75 -107 88 0
5 -12 14 -27 20 -21 8 -24 12 -13 19 9 6 24 1 44 -13 17 -12 26 -14 19 -6 -8
9 -9 20 -3 29 13 20 12 30 0 30 -5 0 -9 -3 -9 -7 3 -20 -2 -34 -10 -29 -11 7
-2 45 10 47 5 1 14 3 19 4 6 1 23 3 38 4 l28 1 -3 68 c-2 65 -2 65 7 22 6 -25
15 -83 20 -130z m234 151 c3 -5 0 -11 -7 -14 -8 -3 -14 1 -14 9 0 16 13 19 21
5z m1240 -2 c-7 -12 -175 -11 -194 1 -10 7 18 10 92 9 60 -1 105 -5 102 -10z
m-3234 -9 c0 -5 -2 -10 -4 -10 -3 0 -8 5 -11 10 -3 6 -1 10 4 10 6 0 11 -4 11
-10z m-20 -30 c0 -5 -5 -10 -11 -10 -5 0 -7 5 -4 10 3 6 8 10 11 10 2 0 4 -4
4 -10z m1728 -51 c-15 -11 -98 -7 -98 4 0 4 5 7 11 7 8 0 7 6 -2 17 -10 11
-10 14 -1 9 6 -4 12 -3 12 3 0 5 19 11 43 13 38 3 42 1 45 -21 2 -13 -2 -28
-10 -32z m282 46 c0 -8 4 -15 9 -15 5 0 7 -9 4 -20 -7 -25 -11 -22 -23 19 -5
19 -5 31 1 31 5 0 9 -7 9 -15z m-1964 -45 c0 -26 -4 -36 -11 -29 -13 13 -13
41 0 56 6 7 11 12 11 13 1 0 1 -18 0 -40z m1444 30 c0 -5 -2 -10 -4 -10 -3 0
-8 5 -11 10 -3 6 -1 10 4 10 6 0 11 -4 11 -10z m-1485 -10 c3 -5 -3 -10 -15
-10 -12 0 -18 5 -15 10 3 6 10 10 15 10 5 0 12 -4 15 -10z m1555 -40 c0 -5 -5
-10 -11 -10 -5 0 -7 5 -4 10 3 6 8 10 11 10 2 0 4 -4 4 -10z m485 -35 c4 -31
3 -36 -11 -31 -8 3 -18 6 -20 6 -9 0 -3 47 8 58 15 15 18 12 23 -33z m-1955
25 c0 -5 -4 -10 -10 -10 -5 0 -10 5 -10 10 0 6 5 10 10 10 6 0 10 -4 10 -10z
m1506 -37 c-7 -7 -26 7 -26 19 0 6 6 6 15 -2 9 -7 13 -15 11 -17z m-1382 -15
c-3 -5 -25 -8 -50 -8 -25 0 -43 4 -40 9 3 5 26 8 50 7 24 0 42 -4 40 -8z
m1836 -53 c0 -44 -16 -53 -24 -14 -9 48 -8 59 9 53 9 -4 15 -19 15 -39z
m-1552 -12 c-10 -2 -26 -2 -35 0 -10 3 -2 5 17 5 19 0 27 -2 18 -5z m55 0 c-7
-2 -19 -2 -25 0 -7 3 -2 5 12 5 14 0 19 -2 13 -5z m2503 -58 c-3 -8 -10 -15
-15 -15 -5 0 -4 11 2 25 12 25 23 16 13 -10z m-2737 -4 c-15 -5 -22 6 -14 19
6 9 10 9 16 -1 5 -8 4 -15 -2 -18z m1739 -49 c-1 -51 -10 -37 -21 31 -5 33 -4
37 8 27 9 -7 14 -29 13 -58z m-1728 18 c0 -5 -4 -10 -10 -10 -5 0 -10 5 -10
10 0 6 5 10 10 10 6 0 10 -4 10 -10z m2766 -33 c4 -4 -23 -7 -59 -7 -37 0 -67
3 -67 8 0 9 116 9 126 -1z m-2676 -28 c0 -14 -17 -10 -23 5 -4 10 -1 13 9 9 7
-3 14 -9 14 -14z m3147 -171 c-3 -8 -6 -5 -6 6 -1 11 2 17 5 13 3 -3 4 -12 1
-19z m22 -68 c0 -9 -4 -8 -9 5 -5 11 -9 27 -9 35 0 9 4 8 9 -5 5 -11 9 -27 9
-35z m-263 -114 c-8 -34 -23 -33 -28 2 -6 43 1 57 19 39 10 -10 13 -24 9 -41z
m281 32 c-3 -8 -6 -5 -6 6 -1 11 2 17 5 13 3 -3 4 -12 1 -19z m-255 -87 c1
-13 -1 -26 -7 -28 -5 -1 -10 13 -11 32 -1 38 12 35 18 -4z m275 17 c-3 -8 -6
-5 -6 6 -1 11 2 17 5 13 3 -3 4 -12 1 -19z m-237 -138 c0 -5 -4 -10 -10 -10
-5 0 -10 5 -10 10 0 6 5 10 10 10 6 0 10 -4 10 -10z m-55 -50 c3 -5 1 -10 -4
-10 -6 0 -11 5 -11 10 0 6 2 10 4 10 3 0 8 -4 11 -10z m-219 -260 c-2 -35 -19
-55 -41 -46 -14 5 -13 11 11 41 14 19 28 35 29 35 1 0 2 -13 1 -30z m174 -86
c0 -8 -5 -12 -10 -9 -6 4 -8 11 -5 16 9 14 15 11 15 -7z m-144 -32 c16 -12 63
-48 105 -80 41 -32 95 -74 119 -95 36 -31 40 -37 22 -37 -24 0 -265 188 -282
221 -14 25 -4 23 36 -9z"/>
<path d="M4803 4175 c0 -8 4 -12 9 -9 5 3 6 10 3 15 -9 13 -12 11 -12 -6z"/>
<path d="M4765 4129 c-4 -6 -5 -13 -2 -16 7 -7 27 6 27 18 0 12 -17 12 -25 -2z"/>
<path d="M4810 4050 c0 -5 5 -10 11 -10 5 0 7 5 4 10 -3 6 -8 10 -11 10 -2 0
-4 -4 -4 -10z"/>
<path d="M5563 4255 c0 -8 4 -12 9 -9 4 3 8 9 8 15 0 5 -4 9 -8 9 -5 0 -9 -7
-9 -15z"/>
<path d="M6315 4310 c-16 -4 -25 -8 -20 -10 6 -1 1 -5 -10 -10 -14 -6 -3 -9
39 -9 58 -1 59 -1 41 19 -10 11 -19 19 -19 19 -1 -1 -14 -5 -31 -9z m40 -10
c3 -5 1 -10 -4 -10 -6 0 -11 5 -11 10 0 6 2 10 4 10 3 0 8 -4 11 -10z"/>
<path d="M6398 4283 c7 -3 16 -2 19 1 4 3 -2 6 -13 5 -11 0 -14 -3 -6 -6z"/>
<path d="M5093 3320 c0 -41 2 -58 4 -37 2 20 2 54 0 75 -2 20 -4 3 -4 -38z"/>
<path d="M5103 3100 c0 -47 2 -66 4 -42 2 23 2 61 0 85 -2 23 -4 4 -4 -43z"/>
<path d="M5112 2920 c0 -14 2 -19 5 -12 2 6 2 18 0 25 -3 6 -5 1 -5 -13z"/>
<path d="M4839 3867 c-9 -20 -9 -31 -2 -38 15 -15 33 20 23 46 -7 19 -8 18
-21 -8z"/>
<path d="M4880 3835 c-18 -20 -21 -28 -12 -37 10 -10 18 -6 38 14 15 14 23 31
20 37 -11 17 -20 14 -46 -14z"/>
<path d="M6777 3989 c7 -7 15 -10 18 -7 3 3 -2 9 -12 12 -14 6 -15 5 -6 -5z"/>
<path d="M5565 3900 c3 -5 8 -10 11 -10 2 0 4 5 4 10 0 6 -5 10 -11 10 -5 0
-7 -4 -4 -10z"/>
<path d="M5540 3554 c-10 -11 -10 -14 1 -14 8 0 20 4 27 9 11 7 11 9 -1 14 -9
3 -21 -1 -27 -9z"/>
<path d="M6656 3735 c-3 -8 -1 -15 4 -15 6 0 10 7 10 15 0 8 -2 15 -4 15 -2 0
-6 -7 -10 -15z"/>
<path d="M6805 3480 c3 -5 8 -10 11 -10 2 0 4 5 4 10 0 6 -5 10 -11 10 -5 0
-7 -4 -4 -10z"/>
<path d="M6875 3369 c-4 -6 -5 -12 -2 -15 2 -3 7 2 10 11 7 17 1 20 -8 4z"/>
<path d="M4705 3611 c-5 -9 35 -44 43 -37 5 6 -21 46 -30 46 -4 0 -9 -4 -13
-9z"/>
<path d="M4661 2904 c0 -11 3 -14 6 -6 3 7 2 16 -1 19 -3 4 -6 -2 -5 -13z"/>
<path d="M4721 2904 c0 -11 3 -14 6 -6 3 7 2 16 -1 19 -3 4 -6 -2 -5 -13z"/>
<path d="M4721 2854 c0 -11 3 -14 6 -6 3 7 2 16 -1 19 -3 4 -6 -2 -5 -13z"/>
<path d="M4722 2795 c0 -16 2 -22 5 -12 2 9 2 23 0 30 -3 6 -5 -1 -5 -18z"/>
<path d="M4870 2620 c-13 -8 -12 -10 3 -10 9 0 17 5 17 10 0 12 -1 12 -20 0z"/>
<path d="M4714 2435 c3 -8 1 -15 -5 -15 -6 0 -8 -4 -5 -9 3 -5 19 -7 36 -6 24
2 30 -1 26 -14 -3 -9 -1 -23 4 -31 8 -12 10 -11 10 7 0 12 3 28 6 36 3 9 -3
16 -16 20 -12 3 -19 10 -15 16 4 7 -4 11 -20 11 -20 0 -26 -4 -21 -15z"/>
<path d="M4690 2396 c0 -2 8 -10 18 -17 15 -13 16 -12 3 4 -13 16 -21 21 -21
13z"/>
<path d="M4671 2354 c0 -11 3 -14 6 -6 3 7 2 16 -1 19 -3 4 -6 -2 -5 -13z"/>
<path d="M4716 2348 c3 -4 9 -8 15 -8 5 0 9 4 9 8 0 5 -7 9 -15 9 -8 0 -12 -4
-9 -9z"/>
<path d="M4690 2330 c0 -5 5 -10 11 -10 5 0 7 5 4 10 -3 6 -8 10 -11 10 -2 0
-4 -4 -4 -10z"/>
<path d="M4640 2315 c0 -8 5 -15 10 -15 6 0 10 7 10 15 0 8 -4 15 -10 15 -5 0
-10 -7 -10 -15z"/>
<path d="M4840 2290 c0 -5 5 -10 11 -10 5 0 7 5 4 10 -3 6 -8 10 -11 10 -2 0
-4 -4 -4 -10z"/>
<path d="M7085 3400 c3 -5 8 -10 11 -10 2 0 4 5 4 10 0 6 -5 10 -11 10 -5 0
-7 -4 -4 -10z"/>
<path d="M7082 3353 c2 -10 12 -19 23 -20 11 -2 14 0 8 3 -7 3 -13 12 -13 20
0 8 -5 14 -11 14 -6 0 -9 -8 -7 -17z"/>
<path d="M7120 3280 c0 -5 -9 -10 -20 -10 -11 0 -20 -4 -20 -10 0 -5 11 -10
25 -10 18 0 25 5 25 20 0 11 -2 20 -5 20 -3 0 -5 -4 -5 -10z"/>
<path d="M4920 3275 c-7 -8 -9 -15 -6 -15 4 0 14 7 22 15 9 8 11 15 6 15 -5 0
-15 -7 -22 -15z"/>
<path d="M4910 3175 c0 -8 2 -15 4 -15 2 0 6 7 10 15 3 8 1 15 -4 15 -6 0 -10
-7 -10 -15z"/>
<path d="M5855 3180 c-3 -5 -1 -10 4 -10 6 0 11 5 11 10 0 6 -2 10 -4 10 -3 0
-8 -4 -11 -10z"/>
<path d="M5670 3086 c0 -19 5 -38 10 -41 6 -4 10 10 10 34 0 23 -4 41 -10 41
-5 0 -10 -15 -10 -34z"/>
<path d="M5890 2982 c0 -5 3 -12 8 -16 4 -4 7 -12 7 -17 0 -5 3 -9 8 -9 4 0
13 0 20 0 6 0 13 11 13 25 2 21 -2 25 -27 25 -16 0 -29 -4 -29 -8z"/>
<path d="M5960 2959 c0 -5 5 -7 10 -4 6 3 10 8 10 11 0 2 -4 4 -10 4 -5 0 -10
-5 -10 -11z"/>
<path d="M5843 2866 c0 -8 8 -14 18 -13 9 1 15 7 12 14 -7 18 -30 17 -30 -1z"/>
<path d="M5945 2870 c-3 -5 1 -10 9 -10 9 0 16 5 16 10 0 6 -4 10 -9 10 -6 0
-13 -4 -16 -10z"/>
<path d="M5808 2853 c7 -3 16 -2 19 1 4 3 -2 6 -13 5 -11 0 -14 -3 -6 -6z"/>
<path d="M5725 2822 c-3 -8 -4 -15 -3 -16 2 -1 11 -8 21 -15 15 -12 17 -11 15
10 -2 18 2 25 20 27 12 2 22 -1 22 -7 0 -6 -4 -11 -10 -11 -6 0 -5 -10 2 -25
6 -14 16 -25 21 -25 5 0 4 7 -3 15 -7 9 -10 19 -6 22 4 4 11 1 16 -7 5 -8 12
-11 16 -8 3 4 -1 14 -10 23 -9 9 -16 21 -16 26 0 15 -79 7 -85 -9z"/>
<path d="M5627 2729 c-24 -14 -11 -32 14 -19 10 6 19 15 19 20 0 13 -10 12
-33 -1z"/>
<path d="M5720 2720 c0 -5 7 -10 15 -10 8 0 15 5 15 10 0 6 -7 10 -15 10 -8 0
-15 -4 -15 -10z"/>
<path d="M5753 2635 c-6 -14 -7 -27 -2 -31 5 -3 2 -16 -7 -30 -16 -24 -16 -24
7 -15 17 6 23 15 21 30 -2 15 2 21 15 22 10 0 13 3 6 6 -7 2 -13 13 -13 24 0
26 -13 24 -27 -6z"/>
<path d="M5965 2590 c-3 -5 -1 -10 4 -10 6 0 11 5 11 10 0 6 -2 10 -4 10 -3 0
-8 -4 -11 -10z"/>
<path d="M5814 2577 c-15 -17 -24 -56 -14 -62 4 -3 11 6 14 20 4 14 11 25 16
25 6 0 10 7 10 15 0 18 -11 19 -26 2z"/>
<path d="M5392 2542 c-21 -14 -3 -44 22 -36 28 9 29 11 23 29 -7 16 -25 19
-45 7z"/>
<path d="M5901 2536 c-14 -17 -3 -26 22 -17 16 6 17 9 4 19 -11 10 -17 9 -26
-2z"/>
<path d="M5750 2531 c0 -5 5 -13 10 -16 6 -3 10 -2 10 4 0 5 -4 13 -10 16 -5
3 -10 2 -10 -4z"/>
<path d="M5673 2476 c-15 -13 -25 -27 -22 -30 3 -3 18 8 34 24 35 36 27 40
-12 6z"/>
<path d="M5090 2195 c0 -63 1 -65 25 -65 26 0 27 3 30 93 1 34 -1 37 -27 37
-28 0 -28 -1 -28 -65z m27 23 c-3 -8 -6 -5 -6 6 -1 11 2 17 5 13 3 -3 4 -12 1
-19z m13 -33 c0 -8 -4 -15 -10 -15 -5 0 -10 7 -10 15 0 8 5 15 10 15 6 0 10
-7 10 -15z"/>
<path d="M6490 2559 c-20 -6 -17 -7 18 -8 23 -1 42 1 42 3 0 9 -37 12 -60 5z"/>
<path d="M6570 2560 c0 -5 5 -10 10 -10 6 0 10 5 10 10 0 6 -4 10 -10 10 -5 0
-10 -4 -10 -10z"/>
<path d="M6450 2449 c0 -5 5 -7 10 -4 6 3 10 8 10 11 0 2 -4 4 -10 4 -5 0 -10
-5 -10 -11z"/>
<path d="M6625 2430 c-3 -5 -1 -10 4 -10 6 0 11 5 11 10 0 6 -2 10 -4 10 -3 0
-8 -4 -11 -10z"/>
<path d="M6735 2020 c3 -5 10 -10 16 -10 5 0 9 5 9 10 0 6 -7 10 -16 10 -8 0
-12 -4 -9 -10z"/>
<path d="M6478 2113 c7 -3 16 -2 19 1 4 3 -2 6 -13 5 -11 0 -14 -3 -6 -6z"/>
<path d="M6485 2090 c3 -5 8 -10 11 -10 2 0 4 5 4 10 0 6 -5 10 -11 10 -5 0
-7 -4 -4 -10z"/>
<path d="M6437 2185 c3 -8 9 -12 14 -9 12 7 11 11 -5 17 -10 4 -13 1 -9 -8z"/>
<path d="M3851 3535 c-1 -11 -10 -145 -22 -298 -11 -153 -19 -290 -17 -305 2
-15 14 113 27 284 13 172 21 318 18 325 -3 9 -6 7 -6 -6z"/>
<path d="M4000 3050 c0 -5 5 -10 10 -10 6 0 10 5 10 10 0 6 -4 10 -10 10 -5 0
-10 -4 -10 -10z"/>
<path d="M4252 2994 c-7 -8 -8 -14 -3 -14 10 0 25 19 20 25 -2 1 -10 -3 -17
-11z"/>
<path d="M4055 2980 c3 -5 8 -10 11 -10 2 0 4 5 4 10 0 6 -5 10 -11 10 -5 0
-7 -4 -4 -10z"/>
<path d="M4091 2943 c6 -7 15 -13 20 -13 5 0 6 6 3 13 -3 8 -11 14 -19 14 -11
0 -12 -4 -4 -14z"/>
<path d="M4254 2949 c-4 -7 -3 -9 4 -5 5 3 13 0 15 -6 4 -9 6 -10 6 -1 1 17
-16 25 -25 12z"/>
<path d="M4230 2910 c-9 -6 -10 -10 -3 -10 6 0 15 5 18 10 8 12 4 12 -15 0z"/>
<path d="M4250 2890 c0 -5 5 -10 11 -10 5 0 7 5 4 10 -3 6 -8 10 -11 10 -2 0
-4 -4 -4 -10z"/>
<path d="M3800 2835 c-1 -27 -7 -128 -13 -222 -7 -95 -9 -173 -5 -173 5 0 8
16 8 36 0 20 5 112 11 204 6 93 9 177 6 187 -3 10 -6 -4 -7 -32z"/>
<path d="M3920 2750 c6 -11 13 -20 16 -20 2 0 0 9 -6 20 -6 11 -13 20 -16 20
-2 0 0 -9 6 -20z"/>
<path d="M3987 2731 c15 -16 30 -27 32 -25 6 6 -40 54 -51 54 -5 0 3 -13 19
-29z"/>
<path d="M4264 2710 c0 -18 2 -18 18 -3 10 9 18 18 18 20 0 1 -8 3 -18 3 -11
0 -18 -7 -18 -20z"/>
<path d="M3905 2620 c-4 -6 -5 -12 -4 -13 2 -2 13 -9 24 -17 19 -14 19 -14 5
4 -8 11 -13 21 -12 23 2 3 1 7 -1 9 -3 3 -8 0 -12 -6z"/>
<path d="M3956 2617 c3 -10 9 -15 12 -12 3 3 0 11 -7 18 -10 9 -11 8 -5 -6z"/>
<path d="M4513 2550 c0 -36 2 -50 4 -32 2 17 2 47 0 65 -2 17 -4 3 -4 -33z"/>
<path d="M4210 2540 c0 -5 5 -10 11 -10 5 0 7 5 4 10 -3 6 -8 10 -11 10 -2 0
-4 -4 -4 -10z"/>
<path d="M4278 2513 c3 -21 11 -48 19 -60 8 -12 11 -28 7 -35 -18 -29 -40 -48
-55 -48 -19 0 -79 -49 -79 -65 0 -15 -126 -125 -143 -125 -10 0 -13 7 -10 21
4 12 0 25 -7 29 -19 12 6 41 28 33 11 -3 13 -2 5 4 -20 14 -32 58 -25 91 4 18
31 56 65 92 73 77 70 89 -3 15 -58 -58 -69 -65 -66 -39 0 9 -5 19 -11 21 -12
4 -19 -18 -13 -42 8 -33 7 -61 -2 -79 -15 -28 -10 -126 8 -153 8 -13 23 -23
33 -23 16 0 137 122 176 178 9 12 24 22 34 22 10 0 28 9 41 20 13 11 24 20 25
20 0 0 -1 -15 -3 -33 -3 -24 -12 -37 -34 -50 -16 -9 -35 -17 -42 -17 -7 0 -21
-7 -32 -16 -18 -14 -18 -15 6 -8 23 5 22 3 -13 -31 -21 -21 -41 -35 -44 -31
-4 4 -1 11 7 16 8 6 11 10 5 10 -20 0 -37 -18 -30 -30 5 -8 4 -11 -2 -7 -15 9
-57 -39 -47 -55 4 -7 4 -10 -1 -6 -4 4 -26 -8 -48 -27 -22 -19 -43 -32 -48
-30 -4 3 -11 0 -14 -6 -4 -5 -14 -8 -23 -4 -9 3 -25 -6 -43 -27 -18 -20 -26
-26 -22 -14 5 14 3 17 -6 12 -7 -5 -11 -17 -8 -27 3 -12 0 -19 -8 -19 -10 0
-13 -16 -12 -65 1 -36 5 -65 9 -65 8 0 12 15 9 38 -2 15 27 47 36 38 3 -3 0
-12 -7 -21 -44 -52 75 33 197 142 24 21 50 37 58 35 8 -2 15 1 15 7 0 18 62
79 76 74 8 -3 14 1 14 9 0 7 14 22 30 31 17 10 30 23 30 29 0 5 11 18 24 29
21 17 23 25 24 116 0 98 -7 123 -35 123 -11 0 -13 -7 -9 -26 5 -19 3 -25 -6
-22 -7 3 -14 18 -14 34 -2 47 -4 54 -12 54 -4 0 -6 -17 -4 -37z"/>
<path d="M4172 2516 c-15 -16 -20 -30 -15 -42 6 -17 8 -16 13 6 4 14 11 24 16
23 6 -1 11 7 11 18 2 24 3 24 -25 -5z"/>
<path d="M4512 2348 l-2 -137 371 -333 370 -333 65 -11 c50 -8 67 -8 75 2 8 9
6 11 -9 8 -12 -4 -35 9 -68 38 -221 197 -653 585 -713 640 l-75 70 -6 96 -7
97 -1 -137z"/>
<path d="M3952 2387 c-11 -15 -12 -47 0 -47 4 0 8 5 8 11 0 7 7 17 16 24 15
11 15 12 1 18 -8 3 -20 0 -25 -6z"/>
<path d="M4045 2391 c-3 -5 -1 -12 5 -16 5 -3 10 1 10 9 0 18 -6 21 -15 7z"/>
<path d="M5810 2380 c0 -5 5 -10 11 -10 5 0 7 5 4 10 -3 6 -8 10 -11 10 -2 0
-4 -4 -4 -10z"/>
<path d="M5875 2360 c-3 -5 1 -10 9 -10 9 0 16 5 16 10 0 6 -4 10 -9 10 -6 0
-13 -4 -16 -10z"/>
<path d="M5680 2349 c0 -5 5 -7 10 -4 6 3 10 8 10 11 0 2 -4 4 -10 4 -5 0 -10
-5 -10 -11z"/>
<path d="M4054 2308 c-10 -12 -14 -19 -9 -15 6 3 17 2 25 -4 8 -5 10 -9 4 -9
-7 0 -14 -9 -17 -20 -4 -14 -10 -18 -23 -13 -12 4 -15 3 -10 -5 12 -20 41 -13
69 16 20 21 24 31 16 39 -6 6 -18 9 -25 6 -8 -3 -14 0 -14 7 0 6 4 9 8 6 4 -2
14 -1 22 5 12 7 11 9 -6 9 -11 0 -29 -10 -40 -22z"/>
<path d="M3950 2250 c0 -5 5 -10 11 -10 5 0 7 5 4 10 -3 6 -8 10 -11 10 -2 0
-4 -4 -4 -10z"/>
<path d="M5920 2221 c0 -7 -4 -9 -10 -6 -5 3 -10 -1 -10 -9 0 -9 4 -16 9 -16
11 0 24 31 16 38 -3 3 -5 0 -5 -7z"/>
<path d="M5573 2133 c-48 -59 -60 -80 -51 -90 6 -7 16 -13 22 -12 6 0 4 5 -5
11 -15 10 -11 18 29 67 25 31 53 62 64 69 18 13 25 32 11 31 -5 0 -36 -34 -70
-76z"/>
<path d="M3932 2143 c-13 -14 -21 -27 -19 -29 2 -2 14 7 27 21 13 14 21 27 19
29 -2 3 -14 -7 -27 -21z"/>
<path d="M5898 2162 c9 -7 8 -13 -8 -27 -11 -10 -20 -24 -20 -32 0 -9 12 -3
31 15 32 30 32 52 1 52 -13 0 -14 -2 -4 -8z"/>
<path d="M3460 2040 c0 -5 5 -10 10 -10 6 0 10 5 10 10 0 6 -4 10 -10 10 -5 0
-10 -4 -10 -10z"/>
<path d="M3604 1985 c-4 -8 -10 -12 -15 -9 -5 3 -9 1 -9 -5 0 -22 18 -19 28 4
7 14 9 25 6 25 -2 0 -7 -7 -10 -15z"/>
<path d="M3811 1984 c0 -11 3 -14 6 -6 3 7 2 16 -1 19 -3 4 -6 -2 -5 -13z"/>
<path d="M8266 1970 c4 -19 11 -44 15 -55 6 -14 7 -9 3 15 -4 19 -11 44 -15
55 -6 14 -7 9 -3 -15z"/>
<path d="M3794 1963 c2 -13 0 -23 -5 -23 -5 0 -9 5 -9 11 0 8 -5 8 -15 -1 -24
-20 -18 -31 13 -24 35 9 34 7 22 35 -10 23 -10 23 -6 2z"/>
<path d="M3500 1935 c-11 -13 -10 -14 4 -9 9 3 16 10 16 15 0 13 -6 11 -20 -6z"/>
<path d="M3557 1943 c-4 -3 -7 -11 -7 -17 0 -6 5 -5 12 2 6 6 9 14 7 17 -3 3
-9 2 -12 -2z"/>
<path d="M3662 1922 c-9 -6 -6 -14 13 -32 13 -12 23 -26 20 -29 -2 -4 1 -13 7
-21 8 -12 9 -12 4 2 -3 10 0 20 6 24 7 4 4 11 -8 18 -11 6 -20 18 -22 26 -2
12 1 11 11 -2 8 -10 16 -15 19 -13 3 3 16 -6 29 -20 23 -24 57 -36 44 -15 -4
6 -11 8 -16 5 -5 -4 -9 -1 -9 5 0 7 6 10 13 7 41 -15 57 -17 57 -7 0 12 -42
30 -73 30 -12 0 -35 7 -51 15 -33 17 -28 17 -44 7z"/>
<path d="M3512 1873 c2 -13 13 -18 37 -18 21 0 36 6 42 18 11 20 6 21 -23 6
-14 -8 -23 -8 -31 0 -16 16 -29 13 -25 -6z"/>
<path d="M3610 1875 c-7 -9 -8 -15 -2 -15 5 0 12 7 16 15 3 8 4 15 2 15 -2 0
-9 -7 -16 -15z"/>
<path d="M3727 1839 c4 -13 8 -18 11 -10 2 7 -1 18 -6 23 -8 8 -9 4 -5 -13z"/>
<path d="M3616 1825 c4 -16 11 -36 17 -42 6 -9 6 -13 -2 -13 -7 0 -9 -5 -5
-12 5 -8 2 -9 -9 -5 -10 3 -17 2 -17 -3 0 -5 11 -9 24 -8 17 2 24 8 24 25 0
13 -4 23 -9 23 -5 0 -9 8 -9 18 0 9 -5 24 -10 32 -8 11 -9 7 -4 -15z"/>
<path d="M5302 1809 c2 -28 8 -35 28 -37 23 -2 24 -1 8 11 -10 8 -18 21 -18
30 0 9 -5 19 -11 22 -7 5 -9 -5 -7 -26z"/>
<path d="M5340 1830 c0 -5 5 -10 11 -10 5 0 7 5 4 10 -3 6 -8 10 -11 10 -2 0
-4 -4 -4 -10z"/>
<path d="M5565 1775 c-28 -25 -45 -45 -40 -45 6 0 31 20 55 45 57 58 48 58
-15 0z"/>
<path d="M3697 1786 c-4 -10 -1 -13 9 -9 7 3 14 9 14 14 0 14 -17 10 -23 -5z"/>
<path d="M5395 1680 c-3 -5 3 -10 15 -10 12 0 18 5 15 10 -3 6 -10 10 -15 10
-5 0 -12 -4 -15 -10z"/>
<path d="M5450 1675 c0 -9 6 -12 15 -9 8 4 15 10 15 15 0 5 -7 9 -15 9 -8 0
-15 -7 -15 -15z"/>
<path d="M5419 1633 c-13 -16 -12 -17 4 -4 16 13 21 21 13 21 -2 0 -10 -8 -17
-17z"/>
</g>
</svg>
